<?xml version="1.0" encoding="utf-8"?>
<!-- Generator: Adobe Illustrator 22.0.1, SVG Export Plug-In . SVG Version: 6.00 Build 0)  -->
<svg version="1.1" id="Capa_1" xmlns="http://www.w3.org/2000/svg" xmlns:xlink="http://www.w3.org/1999/xlink" x="0px" y="0px"
	 viewBox="0 0 382 334.3" style="enable-background:new 0 0 382 334.3;" xml:space="preserve">
<style type="text/css">
	.st0{opacity:0.2;}
	.st1{opacity:0.4;clip-path:url(#SVGID_2_);}
	.st2{fill:none;stroke:#606060;stroke-width:0.25;stroke-miterlimit:10;}
	.st3{fill:#0B898E;}
	.st4{fill:#A2D5DD;}
	.st5{fill:#5CC2C4;}
	.st6{fill:#043C5D;}
	.st7{fill:#CFE9ED;}
	.st8{enable-background:new    ;}
	.st9{fill:#9BD3DD;}
	.st10{clip-path:url(#SVGID_4_);}
	.st11{opacity:0.58;}
	.st12{clip-path:url(#SVGID_6_);}
	.st13{clip-path:url(#SVGID_8_);}
	.st14{clip-path:url(#SVGID_10_);}
	.st15{opacity:0.25;}
	.st16{clip-path:url(#SVGID_12_);}
	.st17{fill:#FFFFFF;}
	.st18{fill:#0B2B4C;}
	.st19{opacity:0.73;fill:url(#SVGID_13_);}
	.st20{opacity:0.73;fill:url(#SVGID_14_);}
	.st21{clip-path:url(#SVGID_16_);}
	.st22{opacity:0.502;fill:#FFFFFF;}
	.st23{fill:#FAD432;}
	.st24{opacity:0.5;fill:#FFFFFF;}
	.st25{opacity:0.51;}
	.st26{fill:#EAA500;}
	.st27{fill:#FBF578;}
	.st28{fill:none;stroke:#5CC2C4;stroke-miterlimit:10;}
	.st29{fill:none;stroke:#043C5D;stroke-miterlimit:10;}
	.st30{opacity:0.46;fill:#DEDED7;}
	.st31{opacity:0.36;}
	.st32{clip-path:url(#SVGID_18_);}
	.st33{opacity:0.3;}
	.st34{opacity:0.35;}
</style>
<g>
	<g class="st0">
		
			<image style="overflow:visible;" width="352" height="271" xlink:href="FCA4E887.png"  transform="matrix(0.48 0 0 0.48 52.04 201.84)">
		</image>
	</g>
	<g class="st0">
		
			<image style="overflow:visible;" width="423" height="304" xlink:href="FCA4E885.png"  transform="matrix(0.48 0 0 0.48 9.8 62.64)">
		</image>
	</g>
	<g>
		<defs>
			<polygon id="SVGID_1_" points="112.3,291.1 189.2,246.6 80.3,184.1 3.3,228.6 			"/>
		</defs>
		<clipPath id="SVGID_2_">
			<use xlink:href="#SVGID_1_"  style="overflow:visible;"/>
		</clipPath>
		<g class="st1">
			<g>
				<line class="st2" x1="-87" y1="272.4" x2="122.9" y2="151.3"/>
				<line class="st2" x1="-79.1" y1="277.1" x2="130.8" y2="155.9"/>
				<line class="st2" x1="-71.3" y1="281.7" x2="138.7" y2="160.6"/>
				<line class="st2" x1="-63.4" y1="286.4" x2="146.6" y2="165.2"/>
				<line class="st2" x1="-55.5" y1="291" x2="154.5" y2="169.9"/>
				<line class="st2" x1="-47.6" y1="295.7" x2="162.3" y2="174.5"/>
				<line class="st2" x1="-39.8" y1="300.3" x2="170.2" y2="179.1"/>
				<line class="st2" x1="-31.9" y1="304.9" x2="178.1" y2="183.8"/>
				<line class="st2" x1="-24" y1="309.6" x2="186" y2="188.4"/>
				<line class="st2" x1="-16.1" y1="314.2" x2="193.8" y2="193.1"/>
				<line class="st2" x1="-8.2" y1="318.9" x2="201.7" y2="197.7"/>
				<line class="st2" x1="-0.4" y1="323.5" x2="209.6" y2="202.3"/>
				<line class="st2" x1="7.5" y1="328.1" x2="217.5" y2="207"/>
				<line class="st2" x1="15.4" y1="332.8" x2="225.4" y2="211.6"/>
				<line class="st2" x1="23.3" y1="337.4" x2="233.2" y2="216.3"/>
				<line class="st2" x1="31.2" y1="342.1" x2="241.1" y2="220.9"/>
				<line class="st2" x1="39" y1="346.7" x2="249" y2="225.5"/>
				<line class="st2" x1="46.9" y1="351.3" x2="256.9" y2="230.2"/>
				<line class="st2" x1="54.8" y1="356" x2="264.8" y2="234.8"/>
				<line class="st2" x1="62.7" y1="360.6" x2="272.6" y2="239.5"/>
				<line class="st2" x1="70.5" y1="365.3" x2="280.5" y2="244.1"/>
				<line class="st2" x1="78.4" y1="369.9" x2="288.4" y2="248.7"/>
				<line class="st2" x1="86.3" y1="374.5" x2="296.3" y2="253.4"/>
				<line class="st2" x1="94.2" y1="379.2" x2="304.1" y2="258"/>
				<line class="st2" x1="102.1" y1="383.8" x2="312" y2="262.7"/>
				<line class="st2" x1="109.9" y1="388.5" x2="319.9" y2="267.3"/>
			</g>
			<g>
				<line class="st2" x1="319.9" y1="272.4" x2="109.9" y2="151.3"/>
				<line class="st2" x1="312" y1="277.1" x2="102.1" y2="155.9"/>
				<line class="st2" x1="304.1" y1="281.7" x2="94.2" y2="160.6"/>
				<line class="st2" x1="296.3" y1="286.4" x2="86.3" y2="165.2"/>
				<line class="st2" x1="288.4" y1="291" x2="78.4" y2="169.9"/>
				<line class="st2" x1="280.5" y1="295.7" x2="70.5" y2="174.5"/>
				<line class="st2" x1="272.6" y1="300.3" x2="62.7" y2="179.1"/>
				<line class="st2" x1="264.8" y1="304.9" x2="54.8" y2="183.8"/>
				<line class="st2" x1="256.9" y1="309.6" x2="46.9" y2="188.4"/>
				<line class="st2" x1="249" y1="314.2" x2="39" y2="193.1"/>
				<line class="st2" x1="241.1" y1="318.9" x2="31.2" y2="197.7"/>
				<line class="st2" x1="233.2" y1="323.5" x2="23.3" y2="202.3"/>
				<line class="st2" x1="225.4" y1="328.1" x2="15.4" y2="207"/>
				<line class="st2" x1="217.5" y1="332.8" x2="7.5" y2="211.6"/>
				<line class="st2" x1="209.6" y1="337.4" x2="-0.4" y2="216.3"/>
				<line class="st2" x1="201.7" y1="342.1" x2="-8.2" y2="220.9"/>
				<line class="st2" x1="193.8" y1="346.7" x2="-16.1" y2="225.5"/>
				<line class="st2" x1="186" y1="351.3" x2="-24" y2="230.2"/>
				<line class="st2" x1="178.1" y1="356" x2="-31.9" y2="234.8"/>
				<line class="st2" x1="170.2" y1="360.6" x2="-39.8" y2="239.5"/>
				<line class="st2" x1="162.3" y1="365.3" x2="-47.6" y2="244.1"/>
				<line class="st2" x1="154.5" y1="369.9" x2="-55.5" y2="248.7"/>
				<line class="st2" x1="146.6" y1="374.5" x2="-63.4" y2="253.4"/>
				<line class="st2" x1="138.7" y1="379.2" x2="-71.3" y2="258"/>
				<line class="st2" x1="130.8" y1="383.8" x2="-79.1" y2="262.7"/>
				<line class="st2" x1="122.9" y1="388.5" x2="-87" y2="267.3"/>
			</g>
		</g>
	</g>
	<g>
		<g class="st0">
			
				<image style="overflow:visible;" width="646" height="432" xlink:href="FCA4E88B.png"  transform="matrix(0.48 0 0 0.48 53.48 72.24)">
			</image>
		</g>
		<path class="st3" d="M281.9,196.3H273l-108.5-62.6c-2.9-1.7-6.5-1.7-9.5,0l-58.7,33.9h-8.8v3.5c0,0.9,0.4,1.7,1.3,2.2l116.1,67
			c2.9,1.7,6.5,1.7,9.5,0l66.2-38.2c0.9-0.5,1.3-1.4,1.3-2.3h0V196.3z"/>
		<g>
			<path class="st4" d="M164.5,126.4l116.1,67c1.7,1,1.7,3.5,0,4.5l-66.2,38.2c-2.9,1.7-6.5,1.7-9.5,0l-116.1-67
				c-1.7-1-1.7-3.5,0-4.5l66.2-38.2C158,124.7,161.6,124.7,164.5,126.4z"/>
		</g>
		<g>
			<polygon class="st5" points="152.6,176.4 192.7,199.5 168.7,213.3 128.6,190.2 			"/>
		</g>
		<polygon class="st3" points="152.6,178.5 190.8,200.6 192.7,199.5 152.6,176.4 128.6,190.2 130.5,191.3 		"/>
		<path class="st5" d="M305.3,107.2L187.9,39.4c-0.6-0.3-1.2-0.5-1.8-0.4l0,0h-4.4l-0.5,8.7h1.3l-17,74c-0.3,1.4,0.3,2.9,1.6,3.6
			l114.7,66.2l1.5,2.4c0,0,1.4-0.4,2.5-0.7c1.3-0.3,2.5-1.1,2.9-2.5l18.4-79.8C307.2,109.4,306.5,107.9,305.3,107.2z"/>
		<g>
			<path class="st6" d="M161.9,124.9l118.8,68.5c1.9,1.1,4.4,0,4.8-2.1l18.4-79.8c0.3-1.4-0.3-2.9-1.6-3.6L183.6,39.4
				c-1.9-1.1-4.4,0-4.8,2.1l-18.4,79.8C160,122.7,160.7,124.2,161.9,124.9z"/>
		</g>
		<g>
			<path class="st7" d="M165.3,119.7l116.3,67.1c0.7,0.4,1.7,0,1.9-0.8l16.5-71.5c0.1-0.5-0.1-1.1-0.6-1.4L183,46
				c-0.7-0.4-1.7,0-1.9,0.8l-16.5,71.5C164.5,118.9,164.8,119.4,165.3,119.7z"/>
		</g>
		<g>
			<g class="st8">
				<g>
					<polyline class="st9" points="286.5,147.2 244,122.6 242.8,127.4 285.4,152 286.5,147.2 					"/>
					<polygon class="st9" points="293.8,118.4 251.3,93.8 245.7,117.9 288.3,142.5 289.4,137.6 					"/>
					<polyline class="st9" points="284.7,154.9 254.4,137.3 253.3,142.2 283.6,159.7 284.7,154.9 					"/>
					<polyline class="st9" points="282.9,162.5 248,142.3 246.8,147.2 281.8,167.4 282.9,162.5 					"/>
					<polyline class="st9" points="281.1,170.2 233.9,143 232.8,147.8 280,175 281.1,170.2 					"/>
				</g>
			</g>
			<g class="st8">
				<g>
					<polyline class="st9" points="176.1,84 213,104.8 214.1,99.9 177.2,79.2 176.1,84 					"/>
					<polygon class="st9" points="169,112.9 205.9,133.6 211.2,109.5 174.4,88.8 173.3,93.6 					"/>
					<polyline class="st9" points="177.9,76.4 202.5,90.1 203.6,85.2 179,71.5 177.9,76.4 					"/>
					<polyline class="st9" points="179.6,68.7 208.9,85.1 210,80.2 180.7,63.8 179.6,68.7 					"/>
					<polyline class="st9" points="181.4,61 222.9,84.4 224,79.5 182.5,56.2 181.4,61 					"/>
				</g>
			</g>
			<g>
				<g>
					<g class="st8">
						<defs>
							<polygon id="SVGID_3_" class="st8" points="220.4,103.5 226.6,79 245.9,90.1 239.7,114.7 							"/>
						</defs>
						<clipPath id="SVGID_4_">
							<use xlink:href="#SVGID_3_"  style="overflow:visible;"/>
						</clipPath>
						<g class="st10">
							<path class="st9" d="M236.3,84.5c-5.3-3.1-11.1-0.1-12.8,6.7c-1.7,6.8,1.2,14.8,6.5,17.9c5.3,3.1,11.1,0.1,12.8-6.7l-4.2-2.4
								c-1,3.8-4.2,5.5-7.2,3.8s-4.6-6.2-3.7-10c1-3.8,4.2-5.5,7.2-3.8L236.3,84.5"/>
						</g>
					</g>
				</g>
				<g class="st11">
					<g>
						<g class="st8">
							<defs>
								<polygon id="SVGID_5_" class="st8" points="233.2,96.9 236.3,84.6 246,90.2 242.9,102.5 								"/>
							</defs>
							<clipPath id="SVGID_6_">
								<use xlink:href="#SVGID_5_"  style="overflow:visible;"/>
							</clipPath>
							<g class="st12">
								<path class="st9" d="M236.3,84.6L235,90c3,1.7,4.6,6.2,3.7,10l4.2,2.4C244.6,95.7,241.7,87.7,236.3,84.6"/>
							</g>
						</g>
					</g>
				</g>
			</g>
			<g>
				<g>
					<g class="st8">
						<defs>
							<polygon id="SVGID_7_" class="st8" points="212.8,131 219.1,106.4 238.4,117.5 232.1,142.1 							"/>
						</defs>
						<clipPath id="SVGID_8_">
							<use xlink:href="#SVGID_7_"  style="overflow:visible;"/>
						</clipPath>
						<g class="st13">
							<path class="st9" d="M228.7,112c-5.3-3.1-11.1-0.1-12.8,6.7c-1.7,6.8,1.2,14.8,6.5,17.9c5.3,3.1,11.1,0.1,12.8-6.7l-4.2-2.4
								c-1,3.8-4.2,5.5-7.2,3.8c-3-1.7-4.6-6.2-3.7-10c1-3.8,4.2-5.5,7.2-3.8L228.7,112"/>
						</g>
					</g>
				</g>
				<g class="st11">
					<g>
						<g class="st8">
							<defs>
								<polygon id="SVGID_9_" class="st8" points="225.6,124.3 228.8,112 238.4,117.6 235.3,129.9 								"/>
							</defs>
							<clipPath id="SVGID_10_">
								<use xlink:href="#SVGID_9_"  style="overflow:visible;"/>
							</clipPath>
							<g class="st14">
								<path class="st9" d="M228.8,112l-1.4,5.4c3,1.7,4.6,6.2,3.7,10l4.2,2.4C237,123.1,234.1,115.1,228.8,112"/>
							</g>
						</g>
					</g>
				</g>
			</g>
		</g>
		<g class="st15">
			<defs>
				<path id="SVGID_11_" class="st15" d="M165.3,119.7l116.3,67.1c0.7,0.4,1.7,0,1.9-0.8l16.5-71.5c0.1-0.5-0.1-1.1-0.6-1.4L183,46
					c-0.7-0.4-1.7,0-1.9,0.8l-16.5,71.5C164.5,118.9,164.8,119.4,165.3,119.7z"/>
			</defs>
			<clipPath id="SVGID_12_">
				<use xlink:href="#SVGID_11_"  style="overflow:visible;"/>
			</clipPath>
			<g class="st16">
				<g>
					
						<rect x="213.7" y="39.2" transform="matrix(0.9826 -0.186 0.186 0.9826 -19.1476 43.8925)" class="st17" width="21.3" height="169.5"/>
				</g>
				<g>
					
						<rect x="236.2" y="21.7" transform="matrix(0.9826 -0.186 0.186 0.9826 -15.5773 46.9271)" class="st17" width="12.3" height="169.5"/>
				</g>
			</g>
		</g>
		<g>
			<g>
				<g>
					<path class="st18" d="M168.6,146.8l5.2,3c0.4,0.3,0.4,0.9,0,1.1l-5.2,3c-0.2,0.1-0.5,0.1-0.7,0l-5.2-3c-0.4-0.3-0.4-0.9,0-1.1
						l5.2-3C168.2,146.6,168.4,146.6,168.6,146.8z"/>
				</g>
				<g>
					<path class="st18" d="M176.1,151l5.2,3c0.4,0.3,0.4,0.9,0,1.1l-5.2,3c-0.2,0.1-0.5,0.1-0.7,0l-5.2-3c-0.4-0.3-0.4-0.9,0-1.1
						l5.2-3C175.6,150.9,175.8,150.9,176.1,151z"/>
				</g>
				<g>
					<path class="st18" d="M183.5,155.3l5.2,3c0.4,0.3,0.4,0.9,0,1.1l-5.2,3c-0.2,0.1-0.5,0.1-0.7,0l-5.2-3c-0.4-0.3-0.4-0.9,0-1.1
						l5.2-3C183,155.2,183.3,155.2,183.5,155.3z"/>
				</g>
				<g>
					<path class="st18" d="M190.9,159.6l5.2,3c0.4,0.3,0.4,0.9,0,1.1l-5.2,3c-0.2,0.1-0.5,0.1-0.7,0l-5.2-3c-0.4-0.3-0.4-0.9,0-1.1
						l5.2-3C190.5,159.5,190.7,159.5,190.9,159.6z"/>
				</g>
				<g>
					<path class="st18" d="M198.4,163.9l5.2,3c0.4,0.3,0.4,0.9,0,1.1l-5.2,3c-0.2,0.1-0.5,0.1-0.7,0l-5.2-3c-0.4-0.3-0.4-0.9,0-1.1
						l5.2-3C197.9,163.8,198.2,163.8,198.4,163.9z"/>
				</g>
				<g>
					<path class="st18" d="M205.8,168.2l5.2,3c0.4,0.3,0.4,0.9,0,1.1l-5.2,3c-0.2,0.1-0.5,0.1-0.7,0l-5.2-3c-0.4-0.3-0.4-0.9,0-1.1
						l5.2-3C205.4,168.1,205.6,168.1,205.8,168.2z"/>
				</g>
				<g>
					<path class="st18" d="M213.3,172.5l5.2,3c0.4,0.3,0.4,0.9,0,1.1l-5.2,3c-0.2,0.1-0.5,0.1-0.7,0l-5.2-3c-0.4-0.3-0.4-0.9,0-1.1
						l5.2-3C212.8,172.3,213.1,172.3,213.3,172.5z"/>
				</g>
				<g>
					<path class="st18" d="M220.7,176.7l5.2,3c0.4,0.3,0.4,0.9,0,1.1l-5.2,3c-0.2,0.1-0.5,0.1-0.7,0l-5.2-3c-0.4-0.3-0.4-0.9,0-1.1
						l5.2-3C220.3,176.6,220.5,176.6,220.7,176.7z"/>
				</g>
				<g>
					<path class="st18" d="M228.2,181l5.2,3c0.4,0.3,0.4,0.9,0,1.1l-5.2,3c-0.2,0.1-0.5,0.1-0.7,0l-5.2-3c-0.4-0.3-0.4-0.9,0-1.1
						l5.2-3C227.7,180.9,228,180.9,228.2,181z"/>
				</g>
				<g>
					<path class="st18" d="M235.6,185.3l5.2,3c0.4,0.3,0.4,0.9,0,1.1l-5.2,3c-0.2,0.1-0.5,0.1-0.7,0l-5.2-3c-0.4-0.3-0.4-0.9,0-1.1
						l5.2-3C235.1,185.2,235.4,185.2,235.6,185.3z"/>
				</g>
				<g>
					<path class="st18" d="M243,189.6l5.2,3c0.4,0.3,0.4,0.9,0,1.1l-5.2,3c-0.2,0.1-0.5,0.1-0.7,0l-5.2-3c-0.4-0.3-0.4-0.9,0-1.1
						l5.2-3C242.6,189.5,242.8,189.5,243,189.6z"/>
				</g>
				<g>
					<path class="st18" d="M250.5,193.9l5.2,3c0.4,0.3,0.4,0.9,0,1.1l-5.2,3c-0.2,0.1-0.5,0.1-0.7,0l-5.2-3c-0.4-0.3-0.4-0.9,0-1.1
						l5.2-3C250,193.8,250.3,193.8,250.5,193.9z"/>
				</g>
			</g>
			<g>
				<g>
					<path class="st18" d="M162.4,133.9l5.2,3c0.4,0.3,0.4,0.9,0,1.1l-5.2,3c-0.2,0.1-0.5,0.1-0.7,0l-5.2-3c-0.4-0.3-0.4-0.9,0-1.1
						l5.2-3C161.9,133.8,162.2,133.8,162.4,133.9z"/>
				</g>
				<g>
					<path class="st18" d="M170,138.4l5.2,3c0.4,0.3,0.4,0.9,0,1.1l-5.2,3c-0.2,0.1-0.5,0.1-0.7,0l-5.2-3c-0.4-0.3-0.4-0.9,0-1.1
						l5.2-3C169.6,138.3,169.8,138.3,170,138.4z"/>
				</g>
				<g>
					<path class="st18" d="M177.5,142.7l5.2,3c0.4,0.3,0.4,0.9,0,1.1l-5.2,3c-0.2,0.1-0.5,0.1-0.7,0l-5.2-3c-0.4-0.3-0.4-0.9,0-1.1
						l5.2-3C177,142.6,177.3,142.6,177.5,142.7z"/>
				</g>
				<g>
					<path class="st18" d="M184.9,147l5.2,3c0.4,0.3,0.4,0.9,0,1.1l-5.2,3c-0.2,0.1-0.5,0.1-0.7,0l-5.2-3c-0.4-0.3-0.4-0.9,0-1.1
						l5.2-3C184.5,146.8,184.7,146.8,184.9,147z"/>
				</g>
				<g>
					<path class="st18" d="M192.4,151.3l5.2,3c0.4,0.3,0.4,0.9,0,1.1l-5.2,3c-0.2,0.1-0.5,0.1-0.7,0l-5.2-3c-0.4-0.3-0.4-0.9,0-1.1
						l5.2-3C191.9,151.1,192.2,151.1,192.4,151.3z"/>
				</g>
				<g>
					<path class="st18" d="M199.8,155.5l5.2,3c0.4,0.3,0.4,0.9,0,1.1l-5.2,3c-0.2,0.1-0.5,0.1-0.7,0l-5.2-3c-0.4-0.3-0.4-0.9,0-1.1
						l5.2-3C199.4,155.4,199.6,155.4,199.8,155.5z"/>
				</g>
				<g>
					<path class="st18" d="M207.3,159.8l5.2,3c0.4,0.3,0.4,0.9,0,1.1l-5.2,3c-0.2,0.1-0.5,0.1-0.7,0l-5.2-3c-0.4-0.3-0.4-0.9,0-1.1
						l5.2-3C206.8,159.7,207.1,159.7,207.3,159.8z"/>
				</g>
				<g>
					<path class="st18" d="M214.7,164.1l5.2,3c0.4,0.3,0.4,0.9,0,1.1l-5.2,3c-0.2,0.1-0.5,0.1-0.7,0l-5.2-3c-0.4-0.3-0.4-0.9,0-1.1
						l5.2-3C214.3,164,214.5,164,214.7,164.1z"/>
				</g>
				<g>
					<path class="st18" d="M222.2,168.4l5.2,3c0.4,0.3,0.4,0.9,0,1.1l-5.2,3c-0.2,0.1-0.5,0.1-0.7,0l-5.2-3c-0.4-0.3-0.4-0.9,0-1.1
						l5.2-3C221.7,168.3,221.9,168.3,222.2,168.4z"/>
				</g>
				<g>
					<path class="st18" d="M229.6,172.7l5.2,3c0.4,0.3,0.4,0.9,0,1.1l-5.2,3c-0.2,0.1-0.5,0.1-0.7,0l-5.2-3c-0.4-0.3-0.4-0.9,0-1.1
						l5.2-3C229.1,172.6,229.4,172.6,229.6,172.7z"/>
				</g>
				<g>
					<path class="st18" d="M237,177l5.2,3c0.4,0.3,0.4,0.9,0,1.1l-5.2,3c-0.2,0.1-0.5,0.1-0.7,0l-5.2-3c-0.4-0.3-0.4-0.9,0-1.1
						l5.2-3C236.6,176.8,236.8,176.8,237,177z"/>
				</g>
				<g>
					<path class="st18" d="M244.5,181.2l5.2,3c0.4,0.3,0.4,0.9,0,1.1l-5.2,3c-0.2,0.1-0.5,0.1-0.7,0l-5.2-3c-0.4-0.3-0.4-0.9,0-1.1
						l5.2-3C244,181.1,244.3,181.1,244.5,181.2z"/>
				</g>
				<path class="st18" d="M258.1,189.1L258.1,189.1l-6.2-3.6c-0.2-0.1-0.5-0.1-0.7,0l-5.2,3c-0.4,0.3-0.4,0.9,0,1.1l5.5,3.2l0,0
					l6.2,3.6c0.2,0.1,0.5,0.1,0.7,0l5.2-3c0.4-0.3,0.4-0.9,0-1.1L258.1,189.1z"/>
			</g>
			<g>
				<g>
					<path class="st18" d="M130.6,152.9l5.2,3c0.4,0.3,0.4,0.9,0,1.1l-5.2,3c-0.2,0.1-0.5,0.1-0.7,0l-5.2-3c-0.4-0.3-0.4-0.9,0-1.1
						l5.2-3C130.1,152.8,130.4,152.8,130.6,152.9z"/>
				</g>
				<g>
					<path class="st18" d="M138.2,157.4l5.2,3c0.4,0.3,0.4,0.9,0,1.1l-5.2,3c-0.2,0.1-0.5,0.1-0.7,0l-5.2-3c-0.4-0.3-0.4-0.9,0-1.1
						l5.2-3C137.8,157.3,138,157.3,138.2,157.4z"/>
				</g>
				<g>
					<path class="st18" d="M145.7,161.7l5.2,3c0.4,0.3,0.4,0.9,0,1.1l-5.2,3c-0.2,0.1-0.5,0.1-0.7,0l-5.2-3c-0.4-0.3-0.4-0.9,0-1.1
						l5.2-3C145.2,161.6,145.5,161.6,145.7,161.7z"/>
				</g>
				<g>
					<path class="st18" d="M153.1,166l5.2,3c0.4,0.3,0.4,0.9,0,1.1l-5.2,3c-0.2,0.1-0.5,0.1-0.7,0l-5.2-3c-0.4-0.3-0.4-0.9,0-1.1
						l5.2-3C152.7,165.9,152.9,165.9,153.1,166z"/>
				</g>
				<g>
					<path class="st18" d="M197.8,191.7l5.2,3c0.4,0.3,0.4,0.9,0,1.1l-5.2,3c-0.2,0.1-0.5,0.1-0.7,0l-5.2-3c-0.4-0.3-0.4-0.9,0-1.1
						l5.2-3C197.3,191.6,197.6,191.6,197.8,191.7z"/>
				</g>
				<g>
					<path class="st18" d="M205.2,196l5.2,3c0.4,0.3,0.4,0.9,0,1.1l-5.2,3c-0.2,0.1-0.5,0.1-0.7,0l-5.2-3c-0.4-0.3-0.4-0.9,0-1.1
						l5.2-3C204.8,195.9,205,195.9,205.2,196z"/>
				</g>
				<path class="st18" d="M219.6,208.2L219.6,208.2l-2.8-1.6c-0.2-0.1-0.4-0.1-0.6,0l-1.8,1.1c-0.4,0.2-0.4,0.9,0,1.1l2.2,1.3l0,0
					l2.8,1.6c0.2,0.1,0.4,0.1,0.6,0l1.8-1.1c0.4-0.2,0.4-0.9,0-1.1L219.6,208.2z"/>
				<path class="st18" d="M222.8,206.1L222.8,206.1l-2.8-1.6c-0.2-0.1-0.4-0.1-0.6,0l-1.8,1.1c-0.4,0.2-0.4,0.9,0,1.1l2.2,1.3l0,0
					l2.8,1.6c0.2,0.1,0.4,0.1,0.6,0l1.8-1.1c0.4-0.2,0.4-0.9,0-1.1L222.8,206.1z"/>
				<path class="st18" d="M226.3,212.1L226.3,212.1l-2.8-1.6c-0.2-0.1-0.4-0.1-0.6,0l-1.8,1.1c-0.4,0.2-0.4,0.9,0,1.1l2.2,1.3l0,0
					l2.8,1.6c0.2,0.1,0.4,0.1,0.6,0l1.8-1.1c0.4-0.2,0.4-0.9,0-1.1L226.3,212.1z"/>
				<path class="st18" d="M212.1,204L212.1,204l-2.8-1.6c-0.2-0.1-0.4-0.1-0.6,0l-1.8,1.1c-0.4,0.2-0.4,0.9,0,1.1l2.2,1.3l0,0
					l2.8,1.6c0.2,0.1,0.4,0.1,0.6,0l1.8-1.1c0.4-0.2,0.4-0.9,0-1.1L212.1,204z"/>
				<g>
					<path class="st18" d="M160.6,170.3l35,20.1c0.4,0.3,0.4,0.9,0,1.1l-5.2,3c-0.2,0.1-0.5,0.1-0.7,0l-35-20.1
						c-0.4-0.3-0.4-0.9,0-1.1l5.2-3C160.1,170.1,160.4,170.2,160.6,170.3z"/>
				</g>
			</g>
			<g>
				<g>
					<path class="st18" d="M162.8,152.9l5.2,3c0.4,0.3,0.4,0.9,0,1.1l-5.2,3c-0.2,0.1-0.5,0.1-0.7,0l-5.2-3c-0.4-0.3-0.4-0.9,0-1.1
						l5.2-3C162.3,152.8,162.6,152.8,162.8,152.9z"/>
				</g>
				<g>
					<path class="st18" d="M170.2,157.2l5.2,3c0.4,0.3,0.4,0.9,0,1.1l-5.2,3c-0.2,0.1-0.5,0.1-0.7,0l-5.2-3c-0.4-0.3-0.4-0.9,0-1.1
						l5.2-3C169.8,157.1,170,157.1,170.2,157.2z"/>
				</g>
				<g>
					<path class="st18" d="M177.7,161.5l5.2,3c0.4,0.3,0.4,0.9,0,1.1l-5.2,3c-0.2,0.1-0.5,0.1-0.7,0l-5.2-3c-0.4-0.3-0.4-0.9,0-1.1
						l5.2-3C177.2,161.3,177.5,161.3,177.7,161.5z"/>
				</g>
				<g>
					<path class="st18" d="M185.1,165.7l5.2,3c0.4,0.3,0.4,0.9,0,1.1l-5.2,3c-0.2,0.1-0.5,0.1-0.7,0l-5.2-3c-0.4-0.3-0.4-0.9,0-1.1
						l5.2-3C184.6,165.6,184.9,165.6,185.1,165.7z"/>
				</g>
				<g>
					<path class="st18" d="M192.5,170l5.2,3c0.4,0.3,0.4,0.9,0,1.1l-5.2,3c-0.2,0.1-0.5,0.1-0.7,0l-5.2-3c-0.4-0.3-0.4-0.9,0-1.1
						l5.2-3C192.1,169.9,192.3,169.9,192.5,170z"/>
				</g>
				<g>
					<path class="st18" d="M200,174.3l5.2,3c0.4,0.3,0.4,0.9,0,1.1l-5.2,3c-0.2,0.1-0.5,0.1-0.7,0l-5.2-3c-0.4-0.3-0.4-0.9,0-1.1
						l5.2-3C199.5,174.2,199.8,174.2,200,174.3z"/>
				</g>
				<g>
					<path class="st18" d="M207.4,178.6l5.2,3c0.4,0.3,0.4,0.9,0,1.1l-5.2,3c-0.2,0.1-0.5,0.1-0.7,0l-5.2-3c-0.4-0.3-0.4-0.9,0-1.1
						l5.2-3C207,178.5,207.2,178.5,207.4,178.6z"/>
				</g>
				<g>
					<path class="st18" d="M214.9,182.9l5.2,3c0.4,0.3,0.4,0.9,0,1.1l-5.2,3c-0.2,0.1-0.5,0.1-0.7,0l-5.2-3c-0.4-0.3-0.4-0.9,0-1.1
						l5.2-3C214.4,182.8,214.7,182.8,214.9,182.9z"/>
				</g>
				<g>
					<path class="st18" d="M222.3,187.2l5.2,3c0.4,0.3,0.4,0.9,0,1.1l-5.2,3c-0.2,0.1-0.5,0.1-0.7,0l-5.2-3c-0.4-0.3-0.4-0.9,0-1.1
						l5.2-3C221.9,187,222.1,187,222.3,187.2z"/>
				</g>
				<g>
					<path class="st18" d="M229.8,191.4l5.2,3c0.4,0.3,0.4,0.9,0,1.1l-5.2,3c-0.2,0.1-0.5,0.1-0.7,0l-5.2-3c-0.4-0.3-0.4-0.9,0-1.1
						l5.2-3C229.3,191.3,229.6,191.3,229.8,191.4z"/>
				</g>
				<path class="st18" d="M240.2,197.5L240.2,197.5l-2.4-1.4c-0.2-0.1-0.5-0.1-0.7,0l-5.2,3c-0.4,0.3-0.4,0.9,0,1.1l1.7,1l0,0
					l7.8,4.6c0.2,0.1,0.5,0.1,0.7,0l5.2-3c0.4-0.3,0.4-0.9,0-1.1L240.2,197.5z"/>
				<path class="st18" d="M152.7,146.8L152.7,146.8l-6.2-3.6c-0.2-0.1-0.5-0.1-0.7,0l-5.2,3c-0.4,0.3-0.4,0.9,0,1.1l5.5,3.2l0,0
					l7.7,4.6c0.2,0.1,0.5,0.1,0.7,0l5.2-3c0.4-0.3,0.4-0.9,0-1.1L152.7,146.8z"/>
			</g>
			<g>
				<g>
					<path class="st18" d="M156.7,158.3l5.2,3c0.4,0.3,0.4,0.9,0,1.1l-5.2,3c-0.2,0.1-0.5,0.1-0.7,0l-5.2-3c-0.4-0.3-0.4-0.9,0-1.1
						l5.2-3C156.3,158.2,156.5,158.2,156.7,158.3z"/>
				</g>
				<g>
					<path class="st18" d="M164.1,162.6l5.2,3c0.4,0.3,0.4,0.9,0,1.1l-5.2,3c-0.2,0.1-0.5,0.1-0.7,0l-5.2-3c-0.4-0.3-0.4-0.9,0-1.1
						l5.2-3C163.7,162.5,163.9,162.5,164.1,162.6z"/>
				</g>
				<g>
					<path class="st18" d="M171.6,166.9l5.2,3c0.4,0.3,0.4,0.9,0,1.1l-5.2,3c-0.2,0.1-0.5,0.1-0.7,0l-5.2-3c-0.4-0.3-0.4-0.9,0-1.1
						l5.2-3C171.1,166.8,171.4,166.8,171.6,166.9z"/>
				</g>
				<g>
					<path class="st18" d="M179,171.2l5.2,3c0.4,0.3,0.4,0.9,0,1.1l-5.2,3c-0.2,0.1-0.5,0.1-0.7,0l-5.2-3c-0.4-0.3-0.4-0.9,0-1.1
						l5.2-3C178.6,171,178.8,171,179,171.2z"/>
				</g>
				<g>
					<path class="st18" d="M186.5,175.4l5.2,3c0.4,0.3,0.4,0.9,0,1.1l-5.2,3c-0.2,0.1-0.5,0.1-0.7,0l-5.2-3c-0.4-0.3-0.4-0.9,0-1.1
						l5.2-3C186,175.3,186.3,175.3,186.5,175.4z"/>
				</g>
				<g>
					<path class="st18" d="M193.9,179.7l5.2,3c0.4,0.3,0.4,0.9,0,1.1l-5.2,3c-0.2,0.1-0.5,0.1-0.7,0l-5.2-3c-0.4-0.3-0.4-0.9,0-1.1
						l5.2-3C193.5,179.6,193.7,179.6,193.9,179.7z"/>
				</g>
				<g>
					<path class="st18" d="M201.4,184l5.2,3c0.4,0.3,0.4,0.9,0,1.1l-5.2,3c-0.2,0.1-0.5,0.1-0.7,0l-5.2-3c-0.4-0.3-0.4-0.9,0-1.1
						l5.2-3C200.9,183.9,201.2,183.9,201.4,184z"/>
				</g>
				<g>
					<path class="st18" d="M208.8,188.3l5.2,3c0.4,0.3,0.4,0.9,0,1.1l-5.2,3c-0.2,0.1-0.5,0.1-0.7,0l-5.2-3c-0.4-0.3-0.4-0.9,0-1.1
						l5.2-3C208.4,188.2,208.6,188.2,208.8,188.3z"/>
				</g>
				<g>
					<path class="st18" d="M216.3,192.6l5.2,3c0.4,0.3,0.4,0.9,0,1.1l-5.2,3c-0.2,0.1-0.5,0.1-0.7,0l-5.2-3c-0.4-0.3-0.4-0.9,0-1.1
						l5.2-3C215.8,192.5,216,192.5,216.3,192.6z"/>
				</g>
				<g>
					<path class="st18" d="M223.7,196.9l5.2,3c0.4,0.3,0.4,0.9,0,1.1l-5.2,3c-0.2,0.1-0.5,0.1-0.7,0l-5.2-3c-0.4-0.3-0.4-0.9,0-1.1
						l5.2-3C223.2,196.7,223.5,196.7,223.7,196.9z"/>
				</g>
				<path class="st18" d="M234.1,202.9L234.1,202.9l-2.4-1.4c-0.2-0.1-0.5-0.1-0.7,0l-5.2,3c-0.4,0.3-0.4,0.9,0,1.1l1.7,1l0,0
					l6.2,3.6c0.2,0.1,0.5,0.1,0.7,0l5.2-3c0.4-0.3,0.4-0.9,0-1.1L234.1,202.9z"/>
				<path class="st18" d="M144.6,151.1L144.6,151.1l-5.9-3.4c-0.2-0.1-0.5-0.1-0.7,0l-5.2,3c-0.4,0.3-0.4,0.9,0,1.1l5.2,3l0,0
					l10.4,6.1c0.2,0.1,0.5,0.1,0.7,0l5.2-3c0.4-0.3,0.4-0.9,0-1.1L144.6,151.1z"/>
			</g>
			<path class="st18" d="M165.7,145l-6.1-3.5c0,0,0,0,0,0l-5.2-3c-0.2-0.1-0.5-0.1-0.7,0l-5.2,3c-0.4,0.3-0.4,0.9,0,1.1l4.5,2.6
				c0,0,0,0,0.1,0.1l6.8,4c0.2,0.1,0.5,0.1,0.7,0l5.2-3C166.2,145.9,166.2,145.2,165.7,145z"/>
		</g>
		<g>
			<g>
				<g>
					<path class="st6" d="M168.6,146.1l5.2,3c0.4,0.3,0.4,0.9,0,1.1l-5.2,3c-0.2,0.1-0.5,0.1-0.7,0l-5.2-3c-0.4-0.3-0.4-0.9,0-1.1
						l5.2-3C168.2,145.9,168.4,145.9,168.6,146.1z"/>
				</g>
				<g>
					<path class="st6" d="M176.1,150.3l5.2,3c0.4,0.3,0.4,0.9,0,1.1l-5.2,3c-0.2,0.1-0.5,0.1-0.7,0l-5.2-3c-0.4-0.3-0.4-0.9,0-1.1
						l5.2-3C175.6,150.2,175.8,150.2,176.1,150.3z"/>
				</g>
				<g>
					<path class="st6" d="M183.5,154.6l5.2,3c0.4,0.3,0.4,0.9,0,1.1l-5.2,3c-0.2,0.1-0.5,0.1-0.7,0l-5.2-3c-0.4-0.3-0.4-0.9,0-1.1
						l5.2-3C183,154.5,183.3,154.5,183.5,154.6z"/>
				</g>
				<g>
					<path class="st6" d="M190.9,158.9l5.2,3c0.4,0.3,0.4,0.9,0,1.1l-5.2,3c-0.2,0.1-0.5,0.1-0.7,0l-5.2-3c-0.4-0.3-0.4-0.9,0-1.1
						l5.2-3C190.5,158.8,190.7,158.8,190.9,158.9z"/>
				</g>
				<g>
					<path class="st6" d="M198.4,163.2l5.2,3c0.4,0.3,0.4,0.9,0,1.1l-5.2,3c-0.2,0.1-0.5,0.1-0.7,0l-5.2-3c-0.4-0.3-0.4-0.9,0-1.1
						l5.2-3C197.9,163.1,198.2,163.1,198.4,163.2z"/>
				</g>
				<g>
					<path class="st6" d="M205.8,167.5l5.2,3c0.4,0.3,0.4,0.9,0,1.1l-5.2,3c-0.2,0.1-0.5,0.1-0.7,0l-5.2-3c-0.4-0.3-0.4-0.9,0-1.1
						l5.2-3C205.4,167.4,205.6,167.4,205.8,167.5z"/>
				</g>
				<g>
					<path class="st6" d="M213.3,171.8l5.2,3c0.4,0.3,0.4,0.9,0,1.1l-5.2,3c-0.2,0.1-0.5,0.1-0.7,0l-5.2-3c-0.4-0.3-0.4-0.9,0-1.1
						l5.2-3C212.8,171.6,213.1,171.6,213.3,171.8z"/>
				</g>
				<g>
					<path class="st6" d="M220.7,176l5.2,3c0.4,0.3,0.4,0.9,0,1.1l-5.2,3c-0.2,0.1-0.5,0.1-0.7,0l-5.2-3c-0.4-0.3-0.4-0.9,0-1.1
						l5.2-3C220.3,175.9,220.5,175.9,220.7,176z"/>
				</g>
				<g>
					<path class="st6" d="M228.2,180.3l5.2,3c0.4,0.3,0.4,0.9,0,1.1l-5.2,3c-0.2,0.1-0.5,0.1-0.7,0l-5.2-3c-0.4-0.3-0.4-0.9,0-1.1
						l5.2-3C227.7,180.2,228,180.2,228.2,180.3z"/>
				</g>
				<g>
					<path class="st6" d="M235.6,184.6l5.2,3c0.4,0.3,0.4,0.9,0,1.1l-5.2,3c-0.2,0.1-0.5,0.1-0.7,0l-5.2-3c-0.4-0.3-0.4-0.9,0-1.1
						l5.2-3C235.1,184.5,235.4,184.5,235.6,184.6z"/>
				</g>
				<g>
					<path class="st6" d="M243,188.9l5.2,3c0.4,0.3,0.4,0.9,0,1.1l-5.2,3c-0.2,0.1-0.5,0.1-0.7,0l-5.2-3c-0.4-0.3-0.4-0.9,0-1.1
						l5.2-3C242.6,188.8,242.8,188.8,243,188.9z"/>
				</g>
				<g>
					<path class="st6" d="M250.5,193.2l5.2,3c0.4,0.3,0.4,0.9,0,1.1l-5.2,3c-0.2,0.1-0.5,0.1-0.7,0l-5.2-3c-0.4-0.3-0.4-0.9,0-1.1
						l5.2-3C250,193.1,250.3,193.1,250.5,193.2z"/>
				</g>
			</g>
			<g>
				<g>
					<path class="st6" d="M162.4,133.2l5.2,3c0.4,0.3,0.4,0.9,0,1.1l-5.2,3c-0.2,0.1-0.5,0.1-0.7,0l-5.2-3c-0.4-0.3-0.4-0.9,0-1.1
						l5.2-3C161.9,133.1,162.2,133.1,162.4,133.2z"/>
				</g>
				<g>
					<path class="st6" d="M170,137.7l5.2,3c0.4,0.3,0.4,0.9,0,1.1l-5.2,3c-0.2,0.1-0.5,0.1-0.7,0l-5.2-3c-0.4-0.3-0.4-0.9,0-1.1
						l5.2-3C169.6,137.6,169.8,137.6,170,137.7z"/>
				</g>
				<g>
					<path class="st6" d="M177.5,142l5.2,3c0.4,0.3,0.4,0.9,0,1.1l-5.2,3c-0.2,0.1-0.5,0.1-0.7,0l-5.2-3c-0.4-0.3-0.4-0.9,0-1.1
						l5.2-3C177,141.9,177.3,141.9,177.5,142z"/>
				</g>
				<g>
					<path class="st6" d="M184.9,146.3l5.2,3c0.4,0.3,0.4,0.9,0,1.1l-5.2,3c-0.2,0.1-0.5,0.1-0.7,0l-5.2-3c-0.4-0.3-0.4-0.9,0-1.1
						l5.2-3C184.5,146.1,184.7,146.1,184.9,146.3z"/>
				</g>
				<g>
					<path class="st6" d="M192.4,150.5l5.2,3c0.4,0.3,0.4,0.9,0,1.1l-5.2,3c-0.2,0.1-0.5,0.1-0.7,0l-5.2-3c-0.4-0.3-0.4-0.9,0-1.1
						l5.2-3C191.9,150.4,192.2,150.4,192.4,150.5z"/>
				</g>
				<g>
					<path class="st6" d="M199.8,154.8l5.2,3c0.4,0.3,0.4,0.9,0,1.1l-5.2,3c-0.2,0.1-0.5,0.1-0.7,0l-5.2-3c-0.4-0.3-0.4-0.9,0-1.1
						l5.2-3C199.4,154.7,199.6,154.7,199.8,154.8z"/>
				</g>
				<g>
					<path class="st6" d="M207.3,159.1l5.2,3c0.4,0.3,0.4,0.9,0,1.1l-5.2,3c-0.2,0.1-0.5,0.1-0.7,0l-5.2-3c-0.4-0.3-0.4-0.9,0-1.1
						l5.2-3C206.8,159,207.1,159,207.3,159.1z"/>
				</g>
				<g>
					<path class="st6" d="M214.7,163.4l5.2,3c0.4,0.3,0.4,0.9,0,1.1l-5.2,3c-0.2,0.1-0.5,0.1-0.7,0l-5.2-3c-0.4-0.3-0.4-0.9,0-1.1
						l5.2-3C214.3,163.3,214.5,163.3,214.7,163.4z"/>
				</g>
				<g>
					<path class="st6" d="M222.2,167.7l5.2,3c0.4,0.3,0.4,0.9,0,1.1l-5.2,3c-0.2,0.1-0.5,0.1-0.7,0l-5.2-3c-0.4-0.3-0.4-0.9,0-1.1
						l5.2-3C221.7,167.6,221.9,167.6,222.2,167.7z"/>
				</g>
				<g>
					<path class="st6" d="M229.6,172l5.2,3c0.4,0.3,0.4,0.9,0,1.1l-5.2,3c-0.2,0.1-0.5,0.1-0.7,0l-5.2-3c-0.4-0.3-0.4-0.9,0-1.1
						l5.2-3C229.1,171.9,229.4,171.9,229.6,172z"/>
				</g>
				<g>
					<path class="st6" d="M237,176.3l5.2,3c0.4,0.3,0.4,0.9,0,1.1l-5.2,3c-0.2,0.1-0.5,0.1-0.7,0l-5.2-3c-0.4-0.3-0.4-0.9,0-1.1
						l5.2-3C236.6,176.1,236.8,176.1,237,176.3z"/>
				</g>
				<g>
					<path class="st6" d="M244.5,180.5l5.2,3c0.4,0.3,0.4,0.9,0,1.1l-5.2,3c-0.2,0.1-0.5,0.1-0.7,0l-5.2-3c-0.4-0.3-0.4-0.9,0-1.1
						l5.2-3C244,180.4,244.3,180.4,244.5,180.5z"/>
				</g>
				<path class="st6" d="M258.1,188.4L258.1,188.4l-6.2-3.6c-0.2-0.1-0.5-0.1-0.7,0l-5.2,3c-0.4,0.3-0.4,0.9,0,1.1l5.5,3.2l0,0
					l6.2,3.6c0.2,0.1,0.5,0.1,0.7,0l5.2-3c0.4-0.3,0.4-0.9,0-1.1L258.1,188.4z"/>
			</g>
			<g>
				<g>
					<path class="st6" d="M130.6,152.2l5.2,3c0.4,0.3,0.4,0.9,0,1.1l-5.2,3c-0.2,0.1-0.5,0.1-0.7,0l-5.2-3c-0.4-0.3-0.4-0.9,0-1.1
						l5.2-3C130.1,152.1,130.4,152.1,130.6,152.2z"/>
				</g>
				<g>
					<path class="st6" d="M138.2,156.7l5.2,3c0.4,0.3,0.4,0.9,0,1.1l-5.2,3c-0.2,0.1-0.5,0.1-0.7,0l-5.2-3c-0.4-0.3-0.4-0.9,0-1.1
						l5.2-3C137.8,156.6,138,156.6,138.2,156.7z"/>
				</g>
				<g>
					<path class="st6" d="M145.7,161l5.2,3c0.4,0.3,0.4,0.9,0,1.1l-5.2,3c-0.2,0.1-0.5,0.1-0.7,0l-5.2-3c-0.4-0.3-0.4-0.9,0-1.1
						l5.2-3C145.2,160.9,145.5,160.9,145.7,161z"/>
				</g>
				<g>
					<path class="st6" d="M153.1,165.3l5.2,3c0.4,0.3,0.4,0.9,0,1.1l-5.2,3c-0.2,0.1-0.5,0.1-0.7,0l-5.2-3c-0.4-0.3-0.4-0.9,0-1.1
						l5.2-3C152.7,165.2,152.9,165.2,153.1,165.3z"/>
				</g>
				<g>
					<path class="st6" d="M197.8,191l5.2,3c0.4,0.3,0.4,0.9,0,1.1l-5.2,3c-0.2,0.1-0.5,0.1-0.7,0l-5.2-3c-0.4-0.3-0.4-0.9,0-1.1
						l5.2-3C197.3,190.9,197.6,190.9,197.8,191z"/>
				</g>
				<g>
					<path class="st6" d="M205.2,195.3l5.2,3c0.4,0.3,0.4,0.9,0,1.1l-5.2,3c-0.2,0.1-0.5,0.1-0.7,0l-5.2-3c-0.4-0.3-0.4-0.9,0-1.1
						l5.2-3C204.8,195.2,205,195.2,205.2,195.3z"/>
				</g>
				<path class="st6" d="M219.6,207.5L219.6,207.5l-2.8-1.6c-0.2-0.1-0.4-0.1-0.6,0l-1.8,1.1c-0.4,0.2-0.4,0.9,0,1.1l2.2,1.3l0,0
					l2.8,1.6c0.2,0.1,0.4,0.1,0.6,0l1.8-1.1c0.4-0.2,0.4-0.9,0-1.1L219.6,207.5z"/>
				<path class="st6" d="M222.8,205.4L222.8,205.4l-2.8-1.6c-0.2-0.1-0.4-0.1-0.6,0l-1.8,1.1c-0.4,0.2-0.4,0.9,0,1.1l2.2,1.3l0,0
					l2.8,1.6c0.2,0.1,0.4,0.1,0.6,0l1.8-1.1c0.4-0.2,0.4-0.9,0-1.1L222.8,205.4z"/>
				<path class="st6" d="M226.3,211.4L226.3,211.4l-2.8-1.6c-0.2-0.1-0.4-0.1-0.6,0l-1.8,1.1c-0.4,0.2-0.4,0.9,0,1.1l2.2,1.3l0,0
					l2.8,1.6c0.2,0.1,0.4,0.1,0.6,0l1.8-1.1c0.4-0.2,0.4-0.9,0-1.1L226.3,211.4z"/>
				<path class="st6" d="M212.1,203.3L212.1,203.3l-2.8-1.6c-0.2-0.1-0.4-0.1-0.6,0l-1.8,1.1c-0.4,0.2-0.4,0.9,0,1.1l2.2,1.3l0,0
					l2.8,1.6c0.2,0.1,0.4,0.1,0.6,0l1.8-1.1c0.4-0.2,0.4-0.9,0-1.1L212.1,203.3z"/>
				<g>
					<path class="st6" d="M160.6,169.6l35,20.1c0.4,0.3,0.4,0.9,0,1.1l-5.2,3c-0.2,0.1-0.5,0.1-0.7,0l-35-20.1
						c-0.4-0.3-0.4-0.9,0-1.1l5.2-3C160.1,169.4,160.4,169.4,160.6,169.6z"/>
				</g>
			</g>
			<g>
				<g>
					<path class="st6" d="M162.8,152.2l5.2,3c0.4,0.3,0.4,0.9,0,1.1l-5.2,3c-0.2,0.1-0.5,0.1-0.7,0l-5.2-3c-0.4-0.3-0.4-0.9,0-1.1
						l5.2-3C162.3,152.1,162.6,152.1,162.8,152.2z"/>
				</g>
				<g>
					<path class="st6" d="M170.2,156.5l5.2,3c0.4,0.3,0.4,0.9,0,1.1l-5.2,3c-0.2,0.1-0.5,0.1-0.7,0l-5.2-3c-0.4-0.3-0.4-0.9,0-1.1
						l5.2-3C169.8,156.4,170,156.4,170.2,156.5z"/>
				</g>
				<g>
					<path class="st6" d="M177.7,160.8l5.2,3c0.4,0.3,0.4,0.9,0,1.1l-5.2,3c-0.2,0.1-0.5,0.1-0.7,0l-5.2-3c-0.4-0.3-0.4-0.9,0-1.1
						l5.2-3C177.2,160.6,177.5,160.6,177.7,160.8z"/>
				</g>
				<g>
					<path class="st6" d="M185.1,165l5.2,3c0.4,0.3,0.4,0.9,0,1.1l-5.2,3c-0.2,0.1-0.5,0.1-0.7,0l-5.2-3c-0.4-0.3-0.4-0.9,0-1.1
						l5.2-3C184.6,164.9,184.9,164.9,185.1,165z"/>
				</g>
				<g>
					<path class="st6" d="M192.5,169.3l5.2,3c0.4,0.3,0.4,0.9,0,1.1l-5.2,3c-0.2,0.1-0.5,0.1-0.7,0l-5.2-3c-0.4-0.3-0.4-0.9,0-1.1
						l5.2-3C192.1,169.2,192.3,169.2,192.5,169.3z"/>
				</g>
				<g>
					<path class="st6" d="M200,173.6l5.2,3c0.4,0.3,0.4,0.9,0,1.1l-5.2,3c-0.2,0.1-0.5,0.1-0.7,0l-5.2-3c-0.4-0.3-0.4-0.9,0-1.1
						l5.2-3C199.5,173.5,199.8,173.5,200,173.6z"/>
				</g>
				<g>
					<path class="st6" d="M207.4,177.9l5.2,3c0.4,0.3,0.4,0.9,0,1.1l-5.2,3c-0.2,0.1-0.5,0.1-0.7,0l-5.2-3c-0.4-0.3-0.4-0.9,0-1.1
						l5.2-3C207,177.8,207.2,177.8,207.4,177.9z"/>
				</g>
				<g>
					<path class="st6" d="M214.9,182.2l5.2,3c0.4,0.3,0.4,0.9,0,1.1l-5.2,3c-0.2,0.1-0.5,0.1-0.7,0l-5.2-3c-0.4-0.3-0.4-0.9,0-1.1
						l5.2-3C214.4,182.1,214.7,182.1,214.9,182.2z"/>
				</g>
				<g>
					<path class="st6" d="M222.3,186.5l5.2,3c0.4,0.3,0.4,0.9,0,1.1l-5.2,3c-0.2,0.1-0.5,0.1-0.7,0l-5.2-3c-0.4-0.3-0.4-0.9,0-1.1
						l5.2-3C221.9,186.3,222.1,186.3,222.3,186.5z"/>
				</g>
				<g>
					<path class="st6" d="M229.8,190.7l5.2,3c0.4,0.3,0.4,0.9,0,1.1l-5.2,3c-0.2,0.1-0.5,0.1-0.7,0l-5.2-3c-0.4-0.3-0.4-0.9,0-1.1
						l5.2-3C229.3,190.6,229.6,190.6,229.8,190.7z"/>
				</g>
				<path class="st6" d="M240.2,196.8L240.2,196.8l-2.4-1.4c-0.2-0.1-0.5-0.1-0.7,0l-5.2,3c-0.4,0.3-0.4,0.9,0,1.1l1.7,1l0,0
					l7.8,4.6c0.2,0.1,0.5,0.1,0.7,0l5.2-3c0.4-0.3,0.4-0.9,0-1.1L240.2,196.8z"/>
				<path class="st6" d="M152.7,146.1L152.7,146.1l-6.2-3.6c-0.2-0.1-0.5-0.1-0.7,0l-5.2,3c-0.4,0.3-0.4,0.9,0,1.1l5.5,3.2l0,0
					l7.7,4.6c0.2,0.1,0.5,0.1,0.7,0l5.2-3c0.4-0.3,0.4-0.9,0-1.1L152.7,146.1z"/>
			</g>
			<g>
				<g>
					<path class="st6" d="M156.7,157.6l5.2,3c0.4,0.3,0.4,0.9,0,1.1l-5.2,3c-0.2,0.1-0.5,0.1-0.7,0l-5.2-3c-0.4-0.3-0.4-0.9,0-1.1
						l5.2-3C156.3,157.5,156.5,157.5,156.7,157.6z"/>
				</g>
				<g>
					<path class="st6" d="M164.1,161.9l5.2,3c0.4,0.3,0.4,0.9,0,1.1l-5.2,3c-0.2,0.1-0.5,0.1-0.7,0l-5.2-3c-0.4-0.3-0.4-0.9,0-1.1
						l5.2-3C163.7,161.8,163.9,161.8,164.1,161.9z"/>
				</g>
				<g>
					<path class="st6" d="M171.6,166.2l5.2,3c0.4,0.3,0.4,0.9,0,1.1l-5.2,3c-0.2,0.1-0.5,0.1-0.7,0l-5.2-3c-0.4-0.3-0.4-0.9,0-1.1
						l5.2-3C171.1,166.1,171.4,166.1,171.6,166.2z"/>
				</g>
				<g>
					<path class="st6" d="M179,170.5l5.2,3c0.4,0.3,0.4,0.9,0,1.1l-5.2,3c-0.2,0.1-0.5,0.1-0.7,0l-5.2-3c-0.4-0.3-0.4-0.9,0-1.1
						l5.2-3C178.6,170.3,178.8,170.3,179,170.5z"/>
				</g>
				<g>
					<path class="st6" d="M186.5,174.7l5.2,3c0.4,0.3,0.4,0.9,0,1.1l-5.2,3c-0.2,0.1-0.5,0.1-0.7,0l-5.2-3c-0.4-0.3-0.4-0.9,0-1.1
						l5.2-3C186,174.6,186.3,174.6,186.5,174.7z"/>
				</g>
				<g>
					<path class="st6" d="M193.9,179l5.2,3c0.4,0.3,0.4,0.9,0,1.1l-5.2,3c-0.2,0.1-0.5,0.1-0.7,0l-5.2-3c-0.4-0.3-0.4-0.9,0-1.1
						l5.2-3C193.5,178.9,193.7,178.9,193.9,179z"/>
				</g>
				<g>
					<path class="st6" d="M201.4,183.3l5.2,3c0.4,0.3,0.4,0.9,0,1.1l-5.2,3c-0.2,0.1-0.5,0.1-0.7,0l-5.2-3c-0.4-0.3-0.4-0.9,0-1.1
						l5.2-3C200.9,183.2,201.2,183.2,201.4,183.3z"/>
				</g>
				<g>
					<path class="st6" d="M208.8,187.6l5.2,3c0.4,0.3,0.4,0.9,0,1.1l-5.2,3c-0.2,0.1-0.5,0.1-0.7,0l-5.2-3c-0.4-0.3-0.4-0.9,0-1.1
						l5.2-3C208.4,187.5,208.6,187.5,208.8,187.6z"/>
				</g>
				<g>
					<path class="st6" d="M216.3,191.9l5.2,3c0.4,0.3,0.4,0.9,0,1.1l-5.2,3c-0.2,0.1-0.5,0.1-0.7,0l-5.2-3c-0.4-0.3-0.4-0.9,0-1.1
						l5.2-3C215.8,191.8,216,191.8,216.3,191.9z"/>
				</g>
				<g>
					<path class="st6" d="M223.7,196.2l5.2,3c0.4,0.3,0.4,0.9,0,1.1l-5.2,3c-0.2,0.1-0.5,0.1-0.7,0l-5.2-3c-0.4-0.3-0.4-0.9,0-1.1
						l5.2-3C223.2,196,223.5,196,223.7,196.2z"/>
				</g>
				<path class="st6" d="M234.1,202.2L234.1,202.2l-2.4-1.4c-0.2-0.1-0.5-0.1-0.7,0l-5.2,3c-0.4,0.3-0.4,0.9,0,1.1l1.7,1l0,0
					l6.2,3.6c0.2,0.1,0.5,0.1,0.7,0l5.2-3c0.4-0.3,0.4-0.9,0-1.1L234.1,202.2z"/>
				<path class="st6" d="M144.6,150.4L144.6,150.4l-5.9-3.4c-0.2-0.1-0.5-0.1-0.7,0l-5.2,3c-0.4,0.3-0.4,0.9,0,1.1l5.2,3l0,0
					l10.4,6.1c0.2,0.1,0.5,0.1,0.7,0l5.2-3c0.4-0.3,0.4-0.9,0-1.1L144.6,150.4z"/>
			</g>
			<path class="st6" d="M165.7,144.3l-6.1-3.5c0,0,0,0,0,0l-5.2-3c-0.2-0.1-0.5-0.1-0.7,0l-5.2,3c-0.4,0.3-0.4,0.9,0,1.1l4.5,2.6
				c0,0,0,0,0.1,0.1l6.8,4c0.2,0.1,0.5,0.1,0.7,0l5.2-3C166.2,145.2,166.2,144.5,165.7,144.3z"/>
		</g>
	</g>
	<g>
		<linearGradient id="SVGID_13_" gradientUnits="userSpaceOnUse" x1="206.3934" y1="140.0487" x2="183.2731" y2="69.0696">
			<stop  offset="0" style="stop-color:#0B898E"/>
			<stop  offset="1" style="stop-color:#5CC2C4"/>
		</linearGradient>
		<polygon class="st19" points="222.2,142.4 163.1,107.5 163.1,53.6 222.2,88.5 		"/>
		<g>
			<g class="st8">
				<g>
					<polyline class="st17" points="177.9,80.3 177.8,80.3 177.8,102.9 178,103 178.1,80.6 177.9,80.3 					"/>
					<polyline class="st17" points="187.8,96.9 187.6,96.9 187.6,96.8 187.5,108.5 187.8,108.7 187.8,96.9 					"/>
					<polyline class="st17" points="197.4,97.7 197.4,97.6 197.3,114.2 197.5,114.3 197.6,97.8 197.4,97.7 					"/>
					<polyline class="st17" points="207.1,109.6 207.1,119.8 207.3,119.9 207.3,109.8 207.2,109.8 207.1,109.6 					"/>
					<polyline class="st17" points="178,79.9 170.3,77 170.3,77.5 177.8,80.3 177.9,80.3 178.1,80.6 187.6,96.8 187.6,96.9 
						187.8,96.9 197.4,97.6 197.4,97.7 197.6,97.8 207.1,109.6 207.2,109.8 207.3,109.8 213,109.9 212.8,109.3 207.2,109.2 
						197.5,97.1 187.7,96.4 178,79.9 					"/>
					<polyline class="st17" points="170.4,72 169.9,71.7 169.8,98.8 212.1,123.3 212.1,122.7 207.3,119.9 207.1,119.8 197.5,114.3 
						197.3,114.2 187.8,108.7 187.5,108.5 178,103 177.8,102.9 170.3,98.6 170.3,77.5 170.3,77 170.4,72 					"/>
					<polyline class="st17" points="170.1,70.2 169.2,71.3 169.9,71.7 170.4,72 171,72.4 170.1,70.2 					"/>
					<polyline class="st17" points="212.1,122 212.1,122.7 212.1,123.3 212.1,124 213.5,123.8 212.1,122 					"/>
				</g>
			</g>
		</g>
	</g>
	<g>
		<linearGradient id="SVGID_14_" gradientUnits="userSpaceOnUse" x1="211.8939" y1="107.8285" x2="273.5677" y2="191.2377">
			<stop  offset="0" style="stop-color:#0B898E"/>
			<stop  offset="1" style="stop-color:#5CC2C4"/>
		</linearGradient>
		<polygon class="st20" points="276.3,196.6 209.2,156.3 209.2,102.5 276.3,142.8 		"/>
		<g>
			<g>
				<g class="st8">
					<defs>
						<polygon id="SVGID_15_" class="st8" points="237.6,165.1 237.7,129.5 268.7,147.4 268.6,183 						"/>
					</defs>
					<clipPath id="SVGID_16_">
						<use xlink:href="#SVGID_15_"  style="overflow:visible;"/>
					</clipPath>
					<g class="st21">
						<g>
							<g>
								<g>
									<path class="st22" d="M252.5,139.6c-8.2-4.7-14.9-0.9-14.9,8.5c0,9.4,6.6,20.9,14.8,25.6c8.2,4.7,14.9,0.9,14.9-8.5
										l-6.7-3.9c0,5.1-3.7,7.2-8.1,4.6c-4.5-2.6-8.1-8.9-8.1-14c0-5.1,3.7-7.2,8.1-4.6L252.5,139.6"/>
									<path class="st23" d="M253.8,138.8l0,7.7c4.5,2.6,8.1,8.9,8.1,14l6.7,3.9C268.7,155,262,143.5,253.8,138.8"/>
								</g>
							</g>
						</g>
					</g>
				</g>
			</g>
		</g>
		<g>
			<polygon class="st23" points="219.4,134.8 222.6,136.7 222.6,127.5 219.4,125.6 			"/>
			<polygon class="st24" points="227.4,127.2 224.2,125.3 224.2,137.6 227.4,139.5 			"/>
			<polygon class="st24" points="217.8,119.3 214.6,117.4 214.6,132 217.8,133.8 			"/>
		</g>
		<g class="st25">
			<polygon class="st17" points="231.9,147.9 214.4,136.7 214.4,134.7 231.9,145.9 			"/>
			<polygon class="st17" points="231.9,151.4 214.4,140.2 214.4,138.1 231.9,149.3 			"/>
			<polygon class="st17" points="231.9,154.8 214.4,143.6 214.4,141.5 231.9,152.7 			"/>
			<polygon class="st17" points="231.9,158.2 214.4,147 214.4,145 231.9,156.2 			"/>
		</g>
	</g>
	<g>
		<g>
			<polygon class="st3" points="129.6,132.5 144,124.2 144,41.3 129.6,33.1 115.2,41.5 115.2,124.3 			"/>
			<polygon class="st5" points="129.6,132.5 129.6,33.1 115.2,41.5 115.2,124.3 			"/>
			<polygon class="st4" points="129.6,49.6 144,41.3 129.6,33.1 115.2,41.5 			"/>
		</g>
		<g>
			<polygon class="st3" points="106.2,145.8 120.5,137.4 120.5,78.5 106.2,70.3 91.8,78.6 91.8,137.6 			"/>
			<polygon class="st5" points="106.2,145.8 106.2,70.3 91.8,78.6 91.8,137.6 			"/>
			<polygon class="st4" points="106.2,86.8 120.5,78.5 106.2,70.3 91.8,78.6 			"/>
		</g>
		<g>
			<polygon class="st26" points="83.6,159 97.9,150.7 97.9,109.9 83.6,101.7 69.2,110 69.2,150.9 			"/>
			<polygon class="st23" points="83.6,159 83.6,101.7 69.2,110 69.2,150.9 			"/>
			<polygon class="st27" points="83.6,118.2 97.9,109.9 83.6,101.7 69.2,110 			"/>
		</g>
		<g>
			<polygon class="st3" points="62,171.8 76.4,163.4 76.4,80.6 62,72.4 47.6,80.7 47.6,163.6 			"/>
			<polygon class="st5" points="62,171.8 62,72.4 47.6,80.7 47.6,163.6 			"/>
			<polygon class="st4" points="62,88.9 76.4,80.6 62,72.4 47.6,80.7 			"/>
		</g>
	</g>
	<g>
		<polyline class="st28" points="3.6,228.6 69.2,223.2 64.6,239.1 115.6,228.2 116.4,248.4 192.5,243 		"/>
		<g>
			<path class="st23" d="M71.3,222c-1.2-0.7-3.1-0.7-4.3,0c-1.2,0.7-1.2,1.8,0,2.5c1.2,0.7,3.1,0.7,4.3,0
				C72.5,223.7,72.5,222.6,71.3,222"/>
		</g>
		<g>
			<path class="st23" d="M117.9,226.9c-1.2-0.7-3.1-0.7-4.3,0c-1.2,0.7-1.2,1.8,0,2.5c1.2,0.7,3.1,0.7,4.3,0
				C119.1,228.6,119.1,227.5,117.9,226.9"/>
		</g>
		<g>
			<path class="st23" d="M118.4,247.2c-1.2-0.7-3.1-0.7-4.3,0c-1.2,0.7-1.2,1.8,0,2.5c1.2,0.7,3.1,0.7,4.3,0
				C119.6,248.9,119.6,247.8,118.4,247.2"/>
		</g>
		<g>
			<path class="st23" d="M66.6,238c-1.2-0.7-3.1-0.7-4.3,0c-1.2,0.7-1.2,1.8,0,2.5c1.2,0.7,3.1,0.7,4.3,0
				C67.8,239.8,67.8,238.7,66.6,238"/>
		</g>
		<polygon class="st23" points="187.8,240.3 194.4,243.4 187.8,246.3 		"/>
		<polyline class="st29" points="85.2,181.1 3.6,228.6 113.6,292.9 		"/>
	</g>
	<g>
		<g>
			<g>
				<path class="st26" d="M141.7,235.8c-11.5-6.7-30.1-6.7-41.6,0c-11.5,6.7-11.5,17.5,0.1,24.1c11.6,6.7,30.2,6.7,41.7,0
					C153.4,253.3,153.3,242.5,141.7,235.8z M136.8,257c-8.7,5.1-22.8,5.1-31.5,0c-8.7-5-8.8-13.2-0.1-18.2c8.7-5,22.7-5,31.4,0
					C145.4,243.8,145.5,252,136.8,257z"/>
				<path class="st26" d="M141.7,232.6c-11.5-6.7-30.1-6.7-41.6,0c-11.5,6.7-11.5,17.5,0.1,24.1c11.6,6.7,30.2,6.7,41.7,0
					C153.4,250.1,153.3,239.3,141.7,232.6z M136.8,253.8c-8.7,5.1-22.8,5.1-31.5,0c-8.7-5-8.8-13.2-0.1-18.2c8.7-5,22.7-5,31.4,0
					C145.4,240.6,145.5,248.7,136.8,253.8z"/>
				<rect x="146.6" y="242.5" class="st26" width="3.9" height="6"/>
				<rect x="91.5" y="242.5" class="st26" width="3.9" height="6"/>
				<path class="st23" d="M141.7,230.1c-11.5-6.7-30.1-6.7-41.6,0c-11.5,6.7-11.5,17.5,0.1,24.1c11.6,6.7,30.2,6.7,41.7,0
					C153.4,247.5,153.3,236.8,141.7,230.1z M137.4,251.6c-9,5.2-23.6,5.2-32.7,0c-9-5.2-9.1-13.7-0.1-18.9c9-5.2,23.6-5.2,32.6,0
					C146.3,237.9,146.4,246.4,137.4,251.6z"/>
			</g>
			<path class="st30" d="M137.3,235.5c-9-5.2-23.6-5.2-32.6,0c-3.9,2.3-6.1,5.1-6.6,8c0.5,2.9,2.8,5.8,6.7,8.1
				c9.1,5.2,23.7,5.2,32.7,0c3.9-2.2,6-5.1,6.6-8C143.4,240.6,141.2,237.8,137.3,235.5z"/>
		</g>
		<g class="st31">
			<defs>
				<path id="SVGID_17_" class="st31" d="M137.3,235.5c-9-5.2-23.6-5.2-32.6,0c-3.9,2.3-6.1,5.1-6.6,8c0.5,2.9,2.8,5.8,6.7,8.1
					c9.1,5.2,23.7,5.2,32.7,0c3.9-2.2,6-5.1,6.6-8C143.4,240.6,141.2,237.8,137.3,235.5z"/>
			</defs>
			<clipPath id="SVGID_18_">
				<use xlink:href="#SVGID_17_"  style="overflow:visible;"/>
			</clipPath>
			<g class="st32">
				<g>
					
						<rect x="114" y="210.4" transform="matrix(0.9826 -0.186 0.186 0.9826 -43.8965 26.3793)" class="st17" width="9.2" height="73.5"/>
				</g>
				<g>
					
						<rect x="123.8" y="202.8" transform="matrix(0.9826 -0.186 0.186 0.9826 -42.349 27.6958)" class="st17" width="5.4" height="73.5"/>
				</g>
			</g>
		</g>
		<g>
			<path class="st6" d="M160.2,261.6l-13.6-7.8l0,0c-0.3-0.2-0.7-0.1-1.1,0.1c-0.8,0.5-1.5,1.7-1.5,2.7c0,0.4,0.2,0.8,0.4,0.9
				c0,0,0,0,0.1,0l0,0l13.6,7.8c0,0,0,0,0,0l2.3-3.6C160.3,261.7,160.3,261.6,160.2,261.6z"/>
			<path class="st5" d="M186.7,274.3l-30.4-17.5l0,0c-0.6-0.3-1.5-0.3-2.4,0.3c-1.9,1.1-3.4,3.8-3.4,5.9c0,1,0.3,1.7,0.9,2.1
				c0,0,0.1,0.1,0.1,0.1l0.1,0.1l30.3,17.5c0,0,0,0,0.1,0l5.2-8.1C187,274.4,186.8,274.3,186.7,274.3z"/>
			<g>
				<path class="st4" d="M184.4,274.5c-1.9,1.1-3.5,3.8-3.5,6c0,2.2,1.6,3.1,3.5,2c1.9-1.1,3.5-3.8,3.5-6
					C187.8,274.2,186.3,273.3,184.4,274.5"/>
			</g>
		</g>
		<g>
			<path class="st4" d="M153.9,266.4c0.1,0.1,0.2,0.1,0.2,0.2l-0.1-0.1C154,266.4,154,266.4,153.9,266.4z"/>
			<path class="st4" d="M158.9,258.1L158.9,258.1C158.9,258.1,158.9,258.1,158.9,258.1z"/>
		</g>
	</g>
	<g>
		<g class="st0">
			
				<image style="overflow:visible;" width="465" height="333" xlink:href="FCA4E88D.png"  transform="matrix(0.48 0 0 0.48 184.52 172.56)">
			</image>
		</g>
		<g>
			<polygon class="st26" points="309,206.8 218.4,259 281,295.4 371.6,243.2 			"/>
		</g>
		<g class="st0">
			
				<image style="overflow:visible;" width="466" height="333" xlink:href="FCA4E88F.png"  transform="matrix(0.48 0 0 0.48 163.88 177.36)">
			</image>
		</g>
		<g>
			<polygon class="st23" points="288.7,211 198.1,263.2 260.7,299.6 351.3,247.4 			"/>
		</g>
		<path class="st26" d="M260.7,278.6l-60.6-35.1c-8,4.8-7.9,16.5,0.2,21.2l59.5,34.5c0.3,0.2,0.6,0.3,0.9,0.4
			C252.9,294.8,252.9,283.4,260.7,278.6z"/>
		<g class="st33">
			<polygon class="st26" points="288.7,211 275.3,219 337.9,255.4 351.3,247.4 			"/>
		</g>
		<g class="st34">
			<g>
				<polygon class="st26" points="278.8,226.7 275.8,228.3 320,254 323,252.4 				"/>
			</g>
			<g>
				<polygon class="st26" points="274.1,229.4 271.2,231.1 315.3,256.7 318.3,255.1 				"/>
			</g>
			<g>
				<polygon class="st26" points="269.5,232.1 266.5,233.8 310.7,259.4 313.6,257.8 				"/>
			</g>
			<g>
				<polygon class="st26" points="264.8,234.8 261.9,236.5 306,262.2 309,260.5 				"/>
			</g>
			<g>
				<polygon class="st26" points="260.1,237.5 257.2,239.2 301.4,264.9 304.3,263.2 				"/>
			</g>
			<g>
				<polygon class="st26" points="255.5,240.3 252.5,241.9 296.7,267.6 299.6,265.9 				"/>
			</g>
			<g>
				<polygon class="st26" points="250.8,243 247.9,244.6 292,270.3 295,268.6 				"/>
			</g>
			<g>
				<polygon class="st26" points="246.2,245.7 243.2,247.3 287.4,273 290.3,271.4 				"/>
			</g>
			<g>
				<polygon class="st26" points="241.5,248.4 238.5,250.1 282.7,275.7 285.7,274.1 				"/>
			</g>
			<g>
				<polygon class="st26" points="236.8,251.1 233.9,252.8 278,278.4 281,276.8 				"/>
			</g>
		</g>
	</g>
	<g class="st33">
		
			<image style="overflow:visible;" width="317" height="248" xlink:href="FCA4E88C.png"  transform="matrix(0.48 0 0 0.48 235.88 223.44)">
		</image>
	</g>
	<g>
		<g>
			<path class="st3" d="M342.1,268.1c-1-4.5-4.6-8.9-10.6-12.4c-14.4-8.3-37.7-8.3-52,0c-6,3.5-9.5,7.9-10.5,12.4h-0.3v5.7v1.8v5.7
				h0c0.4,5.2,4,10.3,10.8,14.2c7,4,16,6.1,25.1,6.3V289v-2.1c-3.9-0.1-7.8-0.6-11.4-1.6c-1.1-0.4-2.2-0.9-3.2-1.5
				c-3-1.7-5-3.9-5.8-6.1c0.9-2.2,2.8-4.3,5.8-6.1c8.5-4.9,22.3-4.9,30.9,0c3,1.8,5,3.9,5.9,6.1c0.2,0.5,0.5,1.5,0.5,1.5v-9.9l15-1
				l0,0v-0.2H342.1z"/>
			<path class="st4" d="M290.1,276.7c-8.6-5-8.6-13-0.1-18c8.5-5,22.4-5,31.1,0c5.1,2.9,7.2,6.9,6.3,10.7l15-1
				c0.3-5.7-3.4-11.4-10.9-15.8c-14.4-8.3-37.7-8.3-52,0c-14.4,8.4-14.3,21.9,0.1,30.2c7,4,16,6.1,25.1,6.3v-8.6
				C299.4,280.3,294.2,279,290.1,276.7z"/>
			<polygon class="st5" points="327.4,279.5 342.4,278.5 342.4,268.4 327.4,269.4 			"/>
		</g>
		<g>
			<path class="st26" d="M337.6,299.5c6.8-3.9,10.3-9.1,10.7-14.2h0v-5.7v-1.8v-5.5l0,0l-15,1l1.8,8.2l-2.8,1.3
				c-1,1.8-2.7,3.5-5.2,4.9c-1,0.6-2.1,1.1-3.2,1.5c-2.7,0.8-5.6,1.3-8.5,1.5l-4.7,2.2v12.9C320.3,305.9,330.2,303.8,337.6,299.5z"
				/>
			<path class="st23" d="M337.6,286.6c6.9-4,10.4-9.2,10.7-14.4l-15,1c-0.6,2.7-2.6,5.3-6.2,7.3c-4.5,2.6-10.6,3.9-16.5,3.7v8.6
				C320.3,293,330.2,290.9,337.6,286.6z"/>
		</g>
	</g>
</g>
</svg>
