<?xml version="1.0" encoding="utf-8"?>
<!-- Generator: Adobe Illustrator 22.0.1, SVG Export Plug-In . SVG Version: 6.00 Build 0)  -->
<svg version="1.1" id="Capa_1" xmlns="http://www.w3.org/2000/svg" xmlns:xlink="http://www.w3.org/1999/xlink" x="0px" y="0px"
	 viewBox="0 0 435.3 378.7" style="enable-background:new 0 0 435.3 378.7;" xml:space="preserve">
<style type="text/css">
	.st0{fill:#BCBCBC;}
	.st1{fill:#D3D3D3;}
	.st2{fill:#0B4656;}
	.st3{fill:#063444;}
	.st4{fill:#4DE4E8;}
	.st5{fill:#0FB1B5;}
	.st6{fill:#1CC6C6;}
	.st7{fill:#FFDC79;}
	.st8{fill:#FE5C99;}
	.st9{fill:#FFFFFF;}
	.st10{fill:#EAEAEA;}
	.st11{opacity:0.6;}
	.st12{opacity:0.4;}
	.st13{opacity:0.5;fill:#076D6D;}
	.st14{fill:#EDEDED;}
	.st15{fill:#190B05;}
	.st16{fill:#442312;}
	.st17{opacity:0.5;fill:#DEFFFE;}
	.st18{opacity:0.75;fill:#DEFFFE;}
	.st19{fill:#DEFFFE;}
	.st20{fill:#F4D0AE;}
	.st21{fill:#FFE1BD;}
	.st22{opacity:0.5;fill:#E9C69E;}
	.st23{fill:#232323;}
	.st24{fill:#E9C69E;}
	.st25{fill:#EFEFEF;}
	.st26{fill:#3A3A3A;}
	.st27{fill:#2D2D2D;}
	.st28{fill:#353535;}
	.st29{fill:#CCCCCC;}
	.st30{fill:#713E23;}
	.st31{fill:none;stroke:#381E1E;stroke-width:0.6345;stroke-miterlimit:10;}
	.st32{fill:#474747;}
	.st33{fill:#141414;}
	.st34{fill:#022636;}
	.st35{fill:#82441D;}
	.st36{fill:#F7AA57;}
	.st37{fill:#F4B77A;}
	.st38{fill:#ECA140;}
	.st39{fill:#9B5934;}
	.st40{fill:#7F391B;}
	.st41{fill:#934B32;}
	.st42{fill:#682C17;}
	.st43{opacity:0.5;fill:#595959;}
	.st44{fill:#845424;}
	.st45{opacity:0.39;fill:#E2E2E2;}
	.st46{fill:#EDCDAB;}
	.st47{opacity:0.39;fill:#EFEFEF;}
	.st48{fill:#DBDBDB;}
	.st49{fill:#81C5E8;}
	.st50{fill:#394356;}
	.st51{fill:#485366;}
	.st52{fill:#6A7384;}
	.st53{opacity:0.2;fill:#FFFFFF;}
	.st54{opacity:0.4;fill:#FFFFFF;}
	.st55{fill:#FFD05A;}
	.st56{fill:#73AAE0;}
	.st57{fill:#ACD3FF;}
	.st58{fill:#779A0A;}
	.st59{fill:#C3D600;}
	.st60{opacity:0.3;fill:#C3D600;}
	.st61{fill:#8BA6FC;}
	.st62{fill:#C9D4FE;}
	.st63{opacity:0.3;fill:#C9D4FE;}
	.st64{opacity:0.1;fill:#FFFFFF;}
	.st65{fill:#00E0C1;}
	.st66{fill:#02F5D0;}
	.st67{fill:#EFC356;}
	.st68{fill:#E83D83;}
</style>
<g>
	<g>
		<g>
			<path class="st0" d="M194.4,58.5l-1.1,0.7c-1.7,1-2.9,0.1-2.4-1.8l0,0l0,0c0.2-1,0.1-1.8-1.2-2.1c-0.4-0.1-0.9,0-1.4,0.4
				c-1.4,0.9-2.6,2.8-2.6,4.2c0,0.2,0,0.4,0.1,0.6l0,0l0,0c0.5,1.3-0.8,3.7-2.4,4.7L182,66c-1.3,0.8-2.4,2.5-2.4,3.8v0.4l17.1-10.3
				v-0.4C196.7,58.2,195.7,57.8,194.4,58.5z M188.2,59.8c-0.8,0.5-1.4,0.2-1.4-0.5c0-0.8,0.6-1.8,1.4-2.2c0.8-0.5,1.4-0.2,1.4,0.6
				C189.6,58.3,189,59.3,188.2,59.8z"/>
			<path class="st1" d="M208.9,58.4l-41.5,25v-1.1c0-3.2,2.6-7.3,5.7-9.2L203.2,55c3.2-1.9,5.7-0.9,5.7,2.3V58.4z"/>
		</g>
		<g>
			<path class="st2" d="M237.1,43.3l-2.6-1l0,0c-0.6-0.2-1.3-0.2-2,0.2l-93.4,57.4c-1.8,1.1-3,3.2-3,5.3v152.2c0,1,0.6,1.8,1.3,2.3
				h0l0,0c0.2,0.1,0.4,0.2,0.6,0.2l2,0.8l0.8-1.5l92.7-57c1.5-0.9,2.4-2.6,2.4-4.4V44.4c0-0.3-0.1-0.5-0.2-0.8l1,0.3L237.1,43.3z"/>
			<path class="st3" d="M238.4,45.3v153.4c0,1.8-0.9,3.4-2.4,4.4l-93.4,57.4c-1.7,1.1-4-0.2-4-2.2V106.1c0-2.2,1.1-4.2,3-5.3
				L235,43.4C236.5,42.5,238.4,43.6,238.4,45.3z"/>
			<path class="st4" d="M235,49.2v148.7c0,0.7-0.3,1.3-0.9,1.6l-90.7,55.7c-0.6,0.4-1.3-0.1-1.3-0.7V106.1c0-1,0.5-1.9,1.3-2.4
				l90.1-55.4C234.1,47.9,235,48.4,235,49.2z"/>
		</g>
		<g>
			<path class="st5" d="M183.5,88.5v55.5c0,0.2-0.1,0.5-0.3,0.6l-33.8,20.8c-0.2,0.1-0.5,0-0.5-0.3v-55.4c0-0.4,0.2-0.7,0.5-0.9
				L183,88.1C183.2,88,183.5,88.2,183.5,88.5z"/>
			<path class="st5" d="M183.5,154.4v5.3c0,0.2-0.1,0.5-0.3,0.6l-33.8,20.8c-0.2,0.1-0.5,0-0.5-0.3v-5.2c0-0.4,0.2-0.7,0.5-0.9
				l33.6-20.6C183.2,153.9,183.5,154.1,183.5,154.4z"/>
			<path class="st6" d="M180,136.9v4.2c0,0.2-0.1,0.4-0.3,0.5l-26.9,16.5c-0.2,0.1-0.4,0-0.4-0.2v-4.2c0-0.3,0.1-0.6,0.4-0.7
				l26.7-16.4C179.7,136.5,180,136.7,180,136.9z"/>
			<path class="st5" d="M183.5,165.4v5.3c0,0.2-0.1,0.5-0.3,0.6l-33.8,20.8c-0.2,0.1-0.5,0-0.5-0.3v-5.2c0-0.4,0.2-0.7,0.5-0.9
				l33.6-20.6C183.2,165,183.5,165.1,183.5,165.4z"/>
			<path class="st5" d="M175.8,181.2v5.3c0,0.2-0.1,0.5-0.3,0.6l-26.1,16.1c-0.2,0.1-0.5,0-0.5-0.3v-5.2c0-0.4,0.2-0.7,0.5-0.9
				l25.9-15.9C175.5,180.7,175.8,180.9,175.8,181.2z"/>
			<path class="st5" d="M220.5,147.5v5.3c0,0.2-0.1,0.5-0.3,0.6L194,169.5c-0.2,0.1-0.5,0-0.5-0.3V164c0-0.4,0.2-0.7,0.5-0.9
				l25.9-15.9C220.1,147.1,220.5,147.2,220.5,147.5z"/>
			<path class="st5" d="M220.5,163.2v5.3c0,0.2-0.1,0.5-0.3,0.6L194,185.2c-0.2,0.1-0.5,0-0.5-0.3v-5.2c0-0.4,0.2-0.7,0.5-0.9
				l25.9-15.9C220.1,162.7,220.5,162.9,220.5,163.2z"/>
			<path class="st5" d="M183.5,187.5v5.3c0,0.2-0.1,0.5-0.3,0.6l-33.8,20.8c-0.2,0.1-0.5,0-0.5-0.3v-5.2c0-0.4,0.2-0.7,0.5-0.9
				l33.6-20.6C183.2,187,183.5,187.2,183.5,187.5z"/>
			<path class="st5" d="M159.8,221v7.7c0,0.4-0.2,0.7-0.5,0.9l-7.2,4.4c-0.3,0.2-0.7,0-0.7-0.4V226c0-0.5,0.3-1,0.7-1.3l6.8-4.1
				C159.3,220.3,159.8,220.6,159.8,221z"/>
			<path class="st7" d="M171.7,213.8v7.7c0,0.4-0.2,0.7-0.5,0.9l-7.2,4.4c-0.3,0.2-0.7,0-0.7-0.4v-7.6c0-0.5,0.3-1,0.7-1.3l6.8-4.1
				C171.2,213.1,171.7,213.4,171.7,213.8z"/>
			<path class="st8" d="M183.5,206.5v7.7c0,0.4-0.2,0.7-0.5,0.9l-7.2,4.4c-0.3,0.2-0.7,0-0.7-0.4v-7.6c0-0.5,0.3-1,0.7-1.3l6.8-4.1
				C183.1,205.8,183.5,206.1,183.5,206.5z"/>
			<path class="st5" d="M214.5,69.9v2c0,0.2-0.1,0.5-0.3,0.6l-22.7,13.9c-0.2,0.1-0.5,0-0.5-0.3v-1.9c0-0.4,0.2-0.7,0.5-0.9
				l22.4-13.8C214.2,69.4,214.5,69.6,214.5,69.9z"/>
			<path class="st5" d="M206.2,80.9v2c0,0.2-0.1,0.5-0.3,0.6l-14.3,8.9c-0.2,0.1-0.5,0-0.5-0.3v-1.9c0-0.4,0.2-0.7,0.5-0.9l14.1-8.7
				C205.9,80.4,206.2,80.6,206.2,80.9z"/>
			<path class="st5" d="M225.7,74.9v2c0,0.2-0.1,0.5-0.3,0.6l-33.8,20.8c-0.2,0.1-0.5,0-0.5-0.3v-1.9c0-0.4,0.2-0.7,0.5-0.9
				l33.6-20.6C225.4,74.4,225.7,74.6,225.7,74.9z"/>
			<path class="st5" d="M222.7,82.6v2c0,0.2-0.1,0.5-0.3,0.6l-30.8,19c-0.2,0.1-0.5,0-0.5-0.3V102c0-0.4,0.2-0.7,0.5-0.9l30.6-18.8
				C222.3,82.1,222.7,82.3,222.7,82.6z"/>
			<path class="st5" d="M209.2,96.8v2c0,0.2-0.1,0.5-0.3,0.6l-17.4,10.7c-0.2,0.1-0.5,0-0.5-0.3v-1.9c0-0.4,0.2-0.7,0.5-0.9
				l17.1-10.5C208.9,96.3,209.2,96.5,209.2,96.8z"/>
			<path class="st5" d="M225.7,92.6v2c0,0.2-0.1,0.5-0.3,0.6L191.5,116c-0.2,0.1-0.5,0-0.5-0.3v-1.9c0-0.4,0.2-0.7,0.5-0.9
				l33.6-20.6C225.4,92.1,225.7,92.3,225.7,92.6z"/>
			<path class="st5" d="M225.7,98.5v2c0,0.2-0.1,0.5-0.3,0.6L191.5,122c-0.2,0.1-0.5,0-0.5-0.3v-1.9c0-0.4,0.2-0.7,0.5-0.9
				l33.6-20.6C225.4,98.1,225.7,98.2,225.7,98.5z"/>
			<path class="st5" d="M217.6,109.5v2c0,0.2-0.1,0.5-0.3,0.6l-25.7,15.8c-0.2,0.1-0.5,0-0.5-0.3v-1.9c0-0.4,0.2-0.7,0.5-0.9
				l25.5-15.6C217.2,109,217.6,109.2,217.6,109.5z"/>
			<path class="st5" d="M225.7,110.4v2c0,0.2-0.1,0.5-0.3,0.6l-33.8,20.8c-0.2,0.1-0.5,0-0.5-0.3v-1.9c0-0.4,0.2-0.7,0.5-0.9
				l33.6-20.6C225.4,109.9,225.7,110.1,225.7,110.4z"/>
			<path class="st5" d="M225.7,116.3v2c0,0.2-0.1,0.5-0.3,0.6l-33.8,20.8c-0.2,0.1-0.5,0-0.5-0.3v-1.9c0-0.4,0.2-0.7,0.5-0.9
				l33.6-20.6C225.4,115.8,225.7,116,225.7,116.3z"/>
			<g>
				<path class="st9" d="M171.9,112.8c0,3.1-2.6,9.6-5.7,11.5c-3.1,2-5.7-1.3-5.7-4.4c0-3.1,2.6-7.3,5.7-9.3
					C169.3,108.7,171.9,109.7,171.9,112.8z"/>
				<path class="st9" d="M180,130.5v0.9l-27.6,17.2v-0.9c0-7.6,6.2-17.6,13.8-22.4c3.8-2.4,7.3-3,9.8-2.1
					C178.4,124.2,180,126.7,180,130.5z"/>
			</g>
			<g>
				<path class="st9" d="M211.8,59.8l-41.5,25v-1.1c0-3.2,2.6-7.3,5.7-9.2l30.1-18.1c3.2-1.9,5.7-0.9,5.7,2.3V59.8z"/>
				<path class="st10" d="M197.2,59.9l-1.1,0.7c-1.7,1-2.9,0.1-2.4-1.8l0,0l0,0c0.2-1,0.1-1.8-1.2-2.1c-0.4-0.1-0.9,0-1.4,0.4
					c-1.4,0.9-2.6,2.8-2.6,4.2c0,0.2,0,0.4,0.1,0.6l0,0l0,0c0.5,1.3-0.8,3.7-2.4,4.7l-1.1,0.7c-1.3,0.8-2.4,2.5-2.4,3.8v0.4
					l17.1-10.3v-0.4C199.6,59.5,198.5,59.1,197.2,59.9z M191,61.1c-0.8,0.5-1.4,0.2-1.4-0.5c0-0.8,0.6-1.8,1.4-2.2
					c0.8-0.5,1.4-0.2,1.4,0.6C192.4,59.7,191.8,60.7,191,61.1z"/>
			</g>
			<path class="st5" d="M225.7,86.6v2c0,0.2-0.1,0.5-0.3,0.6l-13.9,8.6c-0.2,0.1-0.5,0-0.5-0.3v-1.9c0-0.4,0.2-0.7,0.5-0.9l13.7-8.5
				C225.4,86.2,225.7,86.3,225.7,86.6z"/>
		</g>
	</g>
	<g class="st11">
		<g>
			<path class="st0" d="M290.5,29.8l-0.8,0.5c-1.2,0.7-2,0.1-1.7-1.2l0,0l0,0c0.1-0.7,0.1-1.3-0.9-1.4c-0.3-0.1-0.6,0-1,0.3
				c-1,0.6-1.8,1.9-1.8,2.9c0,0.1,0,0.3,0.1,0.4l0,0l0,0c0.3,0.9-0.5,2.6-1.7,3.3l-0.8,0.5c-0.9,0.5-1.6,1.7-1.6,2.6v0.3l11.8-7.1
				v-0.3C292.1,29.6,291.4,29.3,290.5,29.8z M286.2,30.7c-0.5,0.3-1,0.1-1-0.4c0-0.5,0.4-1.2,1-1.5c0.5-0.3,1-0.1,1,0.4
				C287.2,29.7,286.7,30.3,286.2,30.7z"/>
			<path class="st1" d="M300.6,29.7L271.8,47v-0.7c0-2.2,1.8-5,4-6.3l20.8-12.5c2.2-1.3,4-0.6,4,1.6V29.7z"/>
		</g>
		<g>
			<path class="st2" d="M320.1,19.3l-1.8-0.7l0,0c-0.4-0.2-0.9-0.2-1.4,0.1l-64.6,39.7c-1.3,0.8-2.1,2.2-2.1,3.7v105.2
				c0,0.7,0.4,1.3,0.9,1.6h0l0,0c0.1,0.1,0.3,0.1,0.4,0.2l1.4,0.6l0.5-1l64.1-39.4c1-0.6,1.7-1.8,1.7-3V20c0-0.2,0-0.4-0.1-0.5
				l0.7,0.2L320.1,19.3z"/>
			<path class="st3" d="M321,20.7v106.1c0,1.2-0.6,2.4-1.7,3l-64.6,39.7c-1.2,0.7-2.7-0.1-2.7-1.5V62.7c0-1.5,0.8-2.9,2.1-3.7
				l64.6-39.7C319.6,18.7,321,19.5,321,20.7z"/>
			<path class="st4" d="M318.6,23.4v102.9c0,0.5-0.2,0.9-0.6,1.1l-62.7,38.6c-0.4,0.2-0.9,0-0.9-0.5V62.7c0-0.7,0.3-1.3,0.9-1.6
				l62.3-38.3C318,22.5,318.6,22.8,318.6,23.4z"/>
		</g>
		<g>
			<path class="st5" d="M283,50.5v38.4c0,0.2-0.1,0.3-0.2,0.4l-23.4,14.4c-0.1,0.1-0.3,0-0.3-0.2V65.2c0-0.2,0.1-0.5,0.3-0.6
				l23.2-14.3C282.8,50.2,283,50.3,283,50.5z"/>
			<path class="st5" d="M283,96.1v3.7c0,0.2-0.1,0.3-0.2,0.4l-23.4,14.4c-0.1,0.1-0.3,0-0.3-0.2v-3.6c0-0.2,0.1-0.5,0.3-0.6
				l23.2-14.3C282.8,95.8,283,95.9,283,96.1z"/>
			<path class="st6" d="M280.5,84v2.9c0,0.1-0.1,0.3-0.2,0.3l-18.6,11.4c-0.1,0.1-0.3,0-0.3-0.2v-2.9c0-0.2,0.1-0.4,0.3-0.5
				l18.5-11.4C280.4,83.8,280.5,83.9,280.5,84z"/>
			<path class="st5" d="M283,103.8v3.7c0,0.2-0.1,0.3-0.2,0.4l-23.4,14.4c-0.1,0.1-0.3,0-0.3-0.2v-3.6c0-0.2,0.1-0.5,0.3-0.6
				l23.2-14.3C282.8,103.4,283,103.6,283,103.8z"/>
			<path class="st5" d="M277.7,114.7v3.7c0,0.2-0.1,0.3-0.2,0.4l-18.1,11.1c-0.1,0.1-0.3,0-0.3-0.2v-3.6c0-0.2,0.1-0.5,0.3-0.6
				l17.9-11C277.4,114.3,277.7,114.4,277.7,114.7z"/>
			<path class="st5" d="M308.5,91.4v3.7c0,0.2-0.1,0.3-0.2,0.4l-18.1,11.1c-0.1,0.1-0.3,0-0.3-0.2v-3.6c0-0.2,0.1-0.5,0.3-0.6
				l17.9-11C308.3,91,308.5,91.2,308.5,91.4z"/>
			<path class="st5" d="M308.5,102.2v3.7c0,0.2-0.1,0.3-0.2,0.4l-18.1,11.1c-0.1,0.1-0.3,0-0.3-0.2v-3.6c0-0.2,0.1-0.5,0.3-0.6
				l17.9-11C308.3,101.9,308.5,102,308.5,102.2z"/>
			<path class="st5" d="M283,119v3.7c0,0.2-0.1,0.3-0.2,0.4l-23.4,14.4c-0.1,0.1-0.3,0-0.3-0.2v-3.6c0-0.2,0.1-0.5,0.3-0.6
				l23.2-14.3C282.8,118.7,283,118.8,283,119z"/>
			<path class="st5" d="M266.6,142.2v5.3c0,0.2-0.1,0.5-0.3,0.6l-5,3c-0.2,0.1-0.5,0-0.5-0.3v-5.2c0-0.4,0.2-0.7,0.5-0.9l4.7-2.9
				C266.2,141.7,266.6,141.9,266.6,142.2z"/>
			<path class="st7" d="M274.8,137.2v5.3c0,0.2-0.1,0.5-0.3,0.6l-5,3c-0.2,0.1-0.5,0-0.5-0.3v-5.2c0-0.4,0.2-0.7,0.5-0.9l4.7-2.9
				C274.5,136.7,274.8,136.9,274.8,137.2z"/>
			<path class="st8" d="M283,132.2v5.3c0,0.2-0.1,0.5-0.3,0.6l-5,3c-0.2,0.1-0.5,0-0.5-0.3v-5.2c0-0.4,0.2-0.7,0.5-0.9l4.7-2.9
				C282.7,131.7,283,131.9,283,132.2z"/>
			<path class="st5" d="M304.4,37.7v1.4c0,0.2-0.1,0.3-0.2,0.4l-15.7,9.6c-0.1,0.1-0.3,0-0.3-0.2v-1.3c0-0.2,0.1-0.5,0.3-0.6
				l15.5-9.5C304.2,37.4,304.4,37.5,304.4,37.7z"/>
			<path class="st5" d="M298.7,45.3v1.4c0,0.2-0.1,0.3-0.2,0.4l-9.9,6.1c-0.1,0.1-0.3,0-0.3-0.2v-1.3c0-0.2,0.1-0.5,0.3-0.6l9.8-6
				C298.4,44.9,298.7,45.1,298.7,45.3z"/>
			<path class="st5" d="M312.1,41.1v1.4c0,0.2-0.1,0.3-0.2,0.4l-23.4,14.4c-0.1,0.1-0.3,0-0.3-0.2v-1.3c0-0.2,0.1-0.5,0.3-0.6
				l23.2-14.3C311.9,40.8,312.1,40.9,312.1,41.1z"/>
			<path class="st5" d="M310.1,46.5v1.4c0,0.2-0.1,0.3-0.2,0.4l-21.3,13.1c-0.1,0.1-0.3,0-0.3-0.2v-1.3c0-0.2,0.1-0.5,0.3-0.6
				l21.1-13C309.8,46.1,310.1,46.2,310.1,46.5z"/>
			<path class="st5" d="M300.8,56.3v1.4c0,0.2-0.1,0.3-0.2,0.4l-12,7.4c-0.1,0.1-0.3,0-0.3-0.2V64c0-0.2,0.1-0.5,0.3-0.6l11.9-7.3
				C300.5,56,300.8,56.1,300.8,56.3z"/>
			<path class="st5" d="M312.1,53.4v1.4c0,0.2-0.1,0.3-0.2,0.4l-23.4,14.4c-0.1,0.1-0.3,0-0.3-0.2v-1.3c0-0.2,0.1-0.5,0.3-0.6
				l23.2-14.3C311.9,53.1,312.1,53.2,312.1,53.4z"/>
			<path class="st5" d="M312.1,57.5v1.4c0,0.2-0.1,0.3-0.2,0.4l-23.4,14.4c-0.1,0.1-0.3,0-0.3-0.2v-1.3c0-0.2,0.1-0.5,0.3-0.6
				l23.2-14.3C311.9,57.1,312.1,57.3,312.1,57.5z"/>
			<path class="st5" d="M306.5,65v1.4c0,0.2-0.1,0.3-0.2,0.4l-17.8,10.9c-0.1,0.1-0.3,0-0.3-0.2v-1.3c0-0.2,0.1-0.5,0.3-0.6
				l17.6-10.8C306.3,64.7,306.5,64.8,306.5,65z"/>
			<path class="st5" d="M312.1,65.7v1.4c0,0.2-0.1,0.3-0.2,0.4l-23.4,14.4c-0.1,0.1-0.3,0-0.3-0.2v-1.3c0-0.2,0.1-0.5,0.3-0.6
				l23.2-14.3C311.9,65.3,312.1,65.5,312.1,65.7z"/>
			<path class="st5" d="M312.1,69.7v1.4c0,0.2-0.1,0.3-0.2,0.4l-23.4,14.4c-0.1,0.1-0.3,0-0.3-0.2v-1.3c0-0.2,0.1-0.5,0.3-0.6
				l23.2-14.3C311.9,69.4,312.1,69.5,312.1,69.7z"/>
			<g>
				<path class="st9" d="M274.9,67.4c0,2.2-1.8,6.6-3.9,8c-2.2,1.4-3.9-0.9-3.9-3.1c0-2.2,1.8-5,3.9-6.4
					C273.2,64.5,274.9,65.2,274.9,67.4z"/>
				<path class="st9" d="M280.5,79.6v0.6l-19.1,11.9v-0.6c0-5.3,4.3-12.2,9.5-15.5c2.6-1.6,5-2.1,6.7-1.4
					C279.5,75.2,280.5,76.9,280.5,79.6z"/>
			</g>
			<g>
				<path class="st9" d="M302.5,30.7l-28.7,17.3v-0.7c0-2.2,1.8-5,4-6.3l20.8-12.5c2.2-1.3,4-0.6,4,1.6V30.7z"/>
				<path class="st10" d="M292.4,30.8l-0.8,0.5c-1.2,0.7-2,0.1-1.7-1.2l0,0l0,0c0.1-0.7,0.1-1.3-0.9-1.4c-0.3-0.1-0.6,0-1,0.3
					c-1,0.6-1.8,1.9-1.8,2.9c0,0.1,0,0.3,0.1,0.4l0,0l0,0c0.3,0.9-0.5,2.6-1.7,3.3l-0.8,0.5c-0.9,0.5-1.6,1.7-1.6,2.6v0.3l11.8-7.1
					v-0.3C294.1,30.5,293.3,30.2,292.4,30.8z M288.2,31.6c-0.5,0.3-1,0.1-1-0.4c0-0.5,0.4-1.2,1-1.5c0.5-0.3,1-0.1,1,0.4
					C289.1,30.6,288.7,31.3,288.2,31.6z"/>
			</g>
			<path class="st5" d="M312.1,49.2v1.4c0,0.2-0.1,0.3-0.2,0.4l-9.6,6c-0.1,0.1-0.3,0-0.3-0.2v-1.3c0-0.2,0.1-0.5,0.3-0.6l9.4-5.9
				C311.9,48.9,312.1,49,312.1,49.2z"/>
		</g>
	</g>
	<g class="st12">
		<g>
			<path class="st0" d="M93.2,150.6l-0.8,0.5c-1.2,0.7-2,0.1-1.7-1.2l0,0l0,0c0.1-0.7,0.1-1.3-0.9-1.4c-0.3-0.1-0.6,0-1,0.3
				c-1,0.6-1.8,1.9-1.8,2.9c0,0.1,0,0.3,0.1,0.4l0,0l0,0c0.3,0.9-0.5,2.6-1.7,3.3l-0.8,0.5c-0.9,0.5-1.6,1.7-1.6,2.6v0.3l11.8-7.1
				v-0.3C94.8,150.4,94.1,150.1,93.2,150.6z M88.9,151.5c-0.5,0.3-1,0.1-1-0.4c0-0.5,0.4-1.2,1-1.5c0.5-0.3,1-0.1,1,0.4
				C89.9,150.5,89.4,151.2,88.9,151.5z"/>
			<path class="st1" d="M103.3,150.5l-28.7,17.3v-0.7c0-2.2,1.8-5,4-6.3l20.8-12.5c2.2-1.3,4-0.6,4,1.6V150.5z"/>
		</g>
		<g>
			<path class="st2" d="M122.8,140.1l-1.8-0.7l0,0c-0.4-0.2-0.9-0.2-1.4,0.1l-64.6,39.7c-1.3,0.8-2.1,2.2-2.1,3.7v105.2
				c0,0.7,0.4,1.3,0.9,1.6l0,0l0,0c0.1,0.1,0.3,0.1,0.4,0.2l1.4,0.6l0.5-1l64.1-39.4c1-0.6,1.7-1.8,1.7-3V140.8c0-0.2,0-0.4-0.1-0.5
				l0.7,0.2L122.8,140.1z"/>
			<path class="st3" d="M123.7,141.5v106.1c0,1.2-0.6,2.4-1.7,3l-64.6,39.7c-1.2,0.7-2.7-0.1-2.7-1.5V183.6c0-1.5,0.8-2.9,2.1-3.7
				l64.6-39.7C122.3,139.6,123.7,140.3,123.7,141.5z"/>
			<path class="st4" d="M121.3,144.2v102.9c0,0.5-0.2,0.9-0.6,1.1L58,286.7c-0.4,0.2-0.9,0-0.9-0.5V183.5c0-0.7,0.3-1.3,0.9-1.6
				l62.3-38.3C120.7,143.3,121.3,143.6,121.3,144.2z"/>
		</g>
		<g>
			<path class="st5" d="M85.7,171.3v38.4c0,0.2-0.1,0.3-0.2,0.4l-23.4,14.4c-0.2,0.1-0.3,0-0.3-0.2V186c0-0.2,0.1-0.5,0.3-0.6
				l23.2-14.3C85.5,171,85.7,171.1,85.7,171.3z"/>
			<path class="st5" d="M85.7,217v3.7c0,0.2-0.1,0.3-0.2,0.4l-23.4,14.4c-0.2,0.1-0.3,0-0.3-0.2v-3.6c0-0.2,0.1-0.5,0.3-0.6
				l23.2-14.3C85.5,216.6,85.7,216.7,85.7,217z"/>
			<path class="st6" d="M83.2,204.8v2.9c0,0.1-0.1,0.3-0.2,0.3l-18.6,11.4c-0.1,0.1-0.3,0-0.3-0.2v-2.9c0-0.2,0.1-0.4,0.3-0.5
				l18.5-11.4C83.1,204.6,83.2,204.7,83.2,204.8z"/>
			<path class="st5" d="M85.7,224.6v3.7c0,0.2-0.1,0.3-0.2,0.4l-23.4,14.4c-0.2,0.1-0.3,0-0.3-0.2v-3.6c0-0.2,0.1-0.5,0.3-0.6
				l23.2-14.3C85.5,224.3,85.7,224.4,85.7,224.6z"/>
			<path class="st5" d="M80.4,235.5v3.7c0,0.2-0.1,0.3-0.2,0.4l-18.1,11.1c-0.2,0.1-0.3,0-0.3-0.2v-3.6c0-0.2,0.1-0.5,0.3-0.6
				l17.9-11C80.2,235.1,80.4,235.3,80.4,235.5z"/>
			<path class="st5" d="M111.2,212.2v3.7c0,0.2-0.1,0.3-0.2,0.4l-18.1,11.1c-0.1,0.1-0.3,0-0.3-0.2v-3.6c0-0.2,0.1-0.5,0.3-0.6
				l17.9-11C111,211.9,111.2,212,111.2,212.2z"/>
			<path class="st5" d="M111.2,223v3.7c0,0.2-0.1,0.3-0.2,0.4l-18.1,11.1c-0.1,0.1-0.3,0-0.3-0.2v-3.6c0-0.2,0.1-0.5,0.3-0.6
				l17.9-11C111,222.7,111.2,222.8,111.2,223z"/>
			<path class="st5" d="M85.7,239.8v3.7c0,0.2-0.1,0.3-0.2,0.4l-23.4,14.4c-0.2,0.1-0.3,0-0.3-0.2v-3.6c0-0.2,0.1-0.5,0.3-0.6
				l23.2-14.3C85.5,239.5,85.7,239.6,85.7,239.8z"/>
			<path class="st5" d="M69.3,263v5.3c0,0.2-0.1,0.5-0.3,0.6l-5,3c-0.2,0.1-0.5,0-0.5-0.3v-5.2c0-0.4,0.2-0.7,0.5-0.9l4.7-2.9
				C69,262.6,69.3,262.7,69.3,263z"/>
			<path class="st7" d="M77.5,258v5.3c0,0.2-0.1,0.5-0.3,0.6l-5,3c-0.2,0.1-0.5,0-0.5-0.3v-5.2c0-0.4,0.2-0.7,0.5-0.9l4.7-2.9
				C77.2,257.5,77.5,257.7,77.5,258z"/>
			<path class="st8" d="M85.7,253v5.3c0,0.2-0.1,0.5-0.3,0.6l-5,3c-0.2,0.1-0.5,0-0.5-0.3v-5.2c0-0.4,0.2-0.7,0.5-0.9l4.7-2.9
				C85.4,252.5,85.7,252.7,85.7,253z"/>
			<path class="st5" d="M107.1,158.5v1.4c0,0.2-0.1,0.3-0.2,0.4L91.2,170c-0.1,0.1-0.3,0-0.3-0.2v-1.3c0-0.2,0.1-0.5,0.3-0.6
				l15.5-9.5C106.9,158.2,107.1,158.3,107.1,158.5z"/>
			<path class="st5" d="M101.4,166.1v1.4c0,0.2-0.1,0.3-0.2,0.4l-9.9,6.1c-0.1,0.1-0.3,0-0.3-0.2v-1.3c0-0.2,0.1-0.5,0.3-0.6l9.8-6
				C101.2,165.8,101.4,165.9,101.4,166.1z"/>
			<path class="st5" d="M114.9,161.9v1.4c0,0.2-0.1,0.3-0.2,0.4l-23.4,14.4c-0.1,0.1-0.3,0-0.3-0.2v-1.3c0-0.2,0.1-0.5,0.3-0.6
				l23.2-14.3C114.6,161.6,114.9,161.7,114.9,161.9z"/>
			<path class="st5" d="M112.8,167.3v1.4c0,0.2-0.1,0.3-0.2,0.4l-21.3,13.1c-0.1,0.1-0.3,0-0.3-0.2v-1.3c0-0.2,0.1-0.5,0.3-0.6
				l21.1-13C112.5,166.9,112.8,167.1,112.8,167.3z"/>
			<path class="st5" d="M103.5,177.1v1.4c0,0.2-0.1,0.3-0.2,0.4l-12,7.4c-0.1,0.1-0.3,0-0.3-0.2v-1.3c0-0.2,0.1-0.5,0.3-0.6
				l11.9-7.3C103.3,176.8,103.5,176.9,103.5,177.1z"/>
			<path class="st5" d="M114.9,174.2v1.4c0,0.2-0.1,0.3-0.2,0.4l-23.4,14.4c-0.1,0.1-0.3,0-0.3-0.2v-1.3c0-0.2,0.1-0.5,0.3-0.6
				l23.2-14.3C114.6,173.9,114.9,174,114.9,174.2z"/>
			<path class="st5" d="M114.9,178.3v1.4c0,0.2-0.1,0.3-0.2,0.4l-23.4,14.4c-0.1,0.1-0.3,0-0.3-0.2V193c0-0.2,0.1-0.5,0.3-0.6
				l23.2-14.3C114.6,178,114.9,178.1,114.9,178.3z"/>
			<path class="st5" d="M109.2,185.9v1.4c0,0.2-0.1,0.3-0.2,0.4l-17.8,10.9c-0.1,0.1-0.3,0-0.3-0.2v-1.3c0-0.2,0.1-0.5,0.3-0.6
				l17.6-10.8C109,185.5,109.2,185.7,109.2,185.9z"/>
			<path class="st5" d="M114.9,186.5v1.4c0,0.2-0.1,0.3-0.2,0.4l-23.4,14.4c-0.1,0.1-0.3,0-0.3-0.2v-1.3c0-0.2,0.1-0.5,0.3-0.6
				l23.2-14.3C114.6,186.2,114.9,186.3,114.9,186.5z"/>
			<path class="st5" d="M114.9,190.6v1.4c0,0.2-0.1,0.3-0.2,0.4l-23.4,14.4c-0.1,0.1-0.3,0-0.3-0.2v-1.3c0-0.2,0.1-0.5,0.3-0.6
				l23.2-14.3C114.6,190.2,114.9,190.4,114.9,190.6z"/>
			<g>
				<path class="st9" d="M77.7,188.2c0,2.2-1.8,6.6-3.9,8c-2.2,1.4-3.9-0.9-3.9-3.1s1.8-5,3.9-6.4C75.9,185.4,77.7,186,77.7,188.2z"
					/>
				<path class="st9" d="M83.2,200.4v0.6L64.2,213v-0.6c0-5.3,4.3-12.2,9.5-15.5c2.6-1.6,5-2.1,6.7-1.4
					C82.2,196,83.2,197.8,83.2,200.4z"/>
			</g>
			<g>
				<path class="st9" d="M105.2,151.5l-28.7,17.3V168c0-2.2,1.8-5,4-6.3l20.8-12.5c2.2-1.3,4-0.6,4,1.6V151.5z"/>
				<path class="st10" d="M95.2,151.6l-0.8,0.5c-1.2,0.7-2,0.1-1.7-1.2l0,0l0,0c0.1-0.7,0.1-1.3-0.9-1.4c-0.3-0.1-0.6,0-1,0.3
					c-1,0.6-1.8,1.9-1.8,2.9c0,0.1,0,0.3,0.1,0.4l0,0l0,0c0.3,0.9-0.5,2.6-1.7,3.3l-0.8,0.5c-0.9,0.5-1.6,1.7-1.6,2.6v0.3l11.8-7.1
					v-0.3C96.8,151.3,96.1,151,95.2,151.6z M90.9,152.4c-0.5,0.3-1,0.1-1-0.4c0-0.5,0.4-1.2,1-1.5c0.5-0.3,1-0.1,1,0.4
					C91.8,151.4,91.4,152.1,90.9,152.4z"/>
			</g>
			<path class="st5" d="M114.9,170.1v1.4c0,0.2-0.1,0.3-0.2,0.4l-9.6,6c-0.1,0.1-0.3,0-0.3-0.2v-1.3c0-0.2,0.1-0.5,0.3-0.6l9.4-5.9
				C114.6,169.7,114.9,169.9,114.9,170.1z"/>
		</g>
	</g>
</g>
<g>
	<path class="st13" d="M254.7,276l-38.2,23c-1.4,0.8-3.2,0.8-4.6,0l-38.4-23.4c-0.9-0.6-0.9-1.9,0-2.5l39-23.5
		c1.2-0.7,2.7-0.7,3.9,0l38.2,23.3C255.9,273.6,255.9,275.3,254.7,276z"/>
	<path class="st14" d="M255.6,264.1c0-0.6-0.3-1.1-0.9-1.4l-38.2-23.3c-1.2-0.7-2.7-0.7-3.9,0l-39,23.5c-0.5,0.3-0.7,0.8-0.7,1.3h0
		v6.4l0,0c0.1,0.4,0.3,0.8,0.7,1l38.4,23.4c1.4,0.9,3.2,0.9,4.6,0l38.2-23c0.6-0.4,0.9-1,0.9-1.7l0,0L255.6,264.1L255.6,264.1z"/>
	<path class="st9" d="M254.7,265.8l-38.2,23c-1.4,0.8-3.2,0.8-4.6,0l-38.4-23.4c-0.9-0.6-0.9-1.9,0-2.5l39-23.5
		c1.2-0.7,2.7-0.7,3.9,0l38.2,23.3C255.9,263.4,255.9,265.1,254.7,265.8z"/>
</g>
<g>
	<path class="st13" d="M352.6,341l-38.2,23c-1.4,0.8-3.2,0.8-4.6,0l-38.4-23.4c-0.9-0.6-0.9-1.9,0-2.5l39-23.5
		c1.2-0.7,2.7-0.7,3.9,0l38.2,23.3C353.8,338.6,353.8,340.3,352.6,341z"/>
	<path class="st14" d="M353.5,328.4c0-0.6-0.3-1.1-0.9-1.4l-38.2-23.3c-1.2-0.7-2.7-0.7-3.9,0l-39,23.5c-0.5,0.3-0.7,0.8-0.7,1.3h0
		v6.4l0,0c0.1,0.4,0.3,0.8,0.7,1l38.4,23.4c1.4,0.9,3.2,0.9,4.6,0l38.2-23c0.6-0.4,0.9-1,0.9-1.7l0,0L353.5,328.4L353.5,328.4z"/>
	<path class="st9" d="M352.6,330.1l-38.2,23c-1.4,0.8-3.2,0.8-4.6,0l-38.4-23.4c-0.9-0.6-0.9-1.9,0-2.5l39-23.5
		c1.2-0.7,2.7-0.7,3.9,0l38.2,23.3C353.8,327.7,353.8,329.4,352.6,330.1z"/>
</g>
<g>
	<path class="st15" d="M330.1,330L330.1,330c0,0.1,0,0.1,0,0.2c0,0,0,0.1,0,0.1c-0.1,0.5-0.7,1.8-2.9,2.2c-0.1,0-0.3,0-0.4,0.1
		c-0.1,0-0.1,0-0.2,0c-0.5,0-1,0.1-1.6,0c-0.2,0-0.4,0-0.5-0.1c-2.4-0.5-4.6-2.3-5.1-2.8c-0.1-0.1-0.2-0.1-0.2-0.1v-0.4
		c0,0-1.6-1-2.1-1.4c-1.7-1-4.2-1.9-6.6-3.1c-0.7-0.4-1.3-0.8-1.7-1.1c-0.1-0.1-0.2-0.2-0.2-0.2c-0.1,0-0.1-0.1-0.1-0.1
		c-0.1-0.1-0.1-0.1-0.1-0.2c-0.1-0.1-0.2-0.3-0.3-0.4c0-0.1-0.1-0.1-0.1-0.2c0-0.1-0.1-0.1-0.1-0.2c0-0.1-0.1-0.1-0.1-0.2
		c0,0,0,0,0,0c-0.1-0.3-0.1-0.6-0.1-0.9v-1.6l14.5,6l7.9,3L330.1,330z"/>
	<path class="st16" d="M321.5,319.1c0,0-2.4-0.1-6.4-0.8c-4-0.7-6.7-0.9-7.2,0.4c-0.5,1.2-0.6,2.5,2.9,4.9c3.5,2.4,6.3,2.7,9.1,5
		c2.1,1.7,4,2.1,6.1,2.2c2.1,0.1,3.5-0.7,4-1.5c1.1-2,0-5.8,0-5.8"/>
	<path class="st15" d="M315.8,332.3l0,2c0,0.7-0.4,1.4-1,1.7c-0.3,0.1-0.5,0.2-0.9,0.2c-2.5,0.3-6.2-0.3-6.2-0.3v-0.7
		c0,0-1.3-0.2-5.3-0.6c-4.1-0.5-6.9-1.7-8.2-2.4c-0.6-0.3-1-0.9-0.9-1.6l0-1.4l15.6,2.8L315.8,332.3z"/>
	<path class="st16" d="M304.9,325.4c0,0-1.7,1.6-3.8,1.6c-2,0-6-0.1-7.1,0.7c-0.5,0.4-0.8,0.8-0.8,1.3c0,0.5,0.2,1,0.5,1.6
		c0.8,1.1,5.9,2.8,9.8,3.1c3.9,0.3,4.1,0.3,5.9,0.6c1.8,0.3,3.8,0.5,4.9-0.1c2-1,2.1-4,0.9-6C314.1,326.1,304.9,325.4,304.9,325.4z"
		/>
	<path class="st3" d="M313.9,192l-27.3,16.4l-9.5-23.1c-0.4-0.9,0-1.9,0.8-2.4l24.4-14.7c0.8-0.5,1.8-0.1,2.1,0.7L313.9,192z"/>
	<path class="st4" d="M312.7,191.6l-25.3,15.3l-8.8-21.3c-0.4-1.1-0.4-1.5,0.7-2.2l23.4-14.1c0.3-0.2,0.8-0.1,0.9,0.3L312.7,191.6z"
		/>
	<path class="st17" d="M288.6,187.2l-5.3,3.2c-0.1,0.1-0.3,0-0.4-0.1l-1.9-4.7c-0.1-0.1,0-0.3,0.1-0.3l5.3-3.2
		c0.1-0.1,0.3,0,0.4,0.1l1.9,4.7C288.8,187,288.7,187.1,288.6,187.2z"/>
	<path class="st18" d="M296.4,182.5l-5.3,3.2c-0.1,0.1-0.3,0-0.4-0.1l-1.9-4.7c-0.1-0.1,0-0.3,0.1-0.3l5.3-3.2
		c0.1-0.1,0.3,0,0.4,0.1l1.9,4.7C296.6,182.3,296.5,182.4,296.4,182.5z"/>
	<path class="st19" d="M299.9,193.9l-8.6,5.2c-0.2,0.1-0.5,0-0.6-0.2l-3.1-7.6c-0.1-0.2,0-0.4,0.2-0.5l8.6-5.2
		c0.2-0.1,0.5,0,0.6,0.2l3.1,7.6C300.2,193.5,300.1,193.8,299.9,193.9z"/>
	<path class="st19" d="M301.5,185l-2.9,1.7c-0.1,0-0.2,0-0.2-0.1l-0.1-0.2c0-0.1,0-0.1,0.1-0.2l2.9-1.7c0.1,0,0.2,0,0.2,0.1l0.1,0.2
		C301.6,184.9,301.6,185,301.5,185z"/>
	<path class="st19" d="M299.2,187.7c-0.1,0.1-0.3,0-0.4-0.1l-0.1-0.3c0-0.1,0-0.3,0.1-0.3l5.1-3.1c0.1-0.1,0.3,0,0.4,0.1l0.1,0.3
		c0,0.1,0,0.3-0.1,0.3"/>
	<path class="st19" d="M304.7,185.5l-5.1,3.1c-0.1,0.1-0.3,0-0.4-0.1l-0.1-0.3c0-0.1,0-0.3,0.1-0.3l5.1-3.1c0.1-0.1,0.3,0,0.4,0.1
		l0.1,0.3C304.9,185.3,304.8,185.5,304.7,185.5z"/>
	<path class="st19" d="M305.1,186.5l-5.1,3.1c-0.1,0.1-0.3,0-0.4-0.1l-0.1-0.3c0-0.1,0-0.3,0.1-0.3l5.1-3.1c0.1-0.1,0.3,0,0.4,0.1
		l0.1,0.3C305.3,186.3,305.2,186.4,305.1,186.5z"/>
	<path class="st18" d="M305.5,187.4l-5.1,3.1c-0.1,0.1-0.3,0-0.4-0.1l-0.1-0.3c0-0.1,0-0.3,0.1-0.3l5.1-3.1c0.1-0.1,0.3,0,0.4,0.1
		l0.1,0.3C305.6,187.2,305.6,187.3,305.5,187.4z"/>
	<path class="st17" d="M305.9,188.3l-5.1,3.1c-0.1,0.1-0.3,0-0.4-0.1l-0.1-0.3c0-0.1,0-0.3,0.1-0.3l5.1-3.1c0.1-0.1,0.3,0,0.4,0.1
		l0.1,0.3C306,188.1,306,188.2,305.9,188.3z"/>
	<path class="st19" d="M304.2,177.8l-5.3,3.2c-0.1,0.1-0.3,0-0.4-0.1l-1.9-4.7c-0.1-0.1,0-0.3,0.1-0.3l5.3-3.2
		c0.1-0.1,0.3,0,0.4,0.1l1.9,4.7C304.4,177.6,304.3,177.7,304.2,177.8z"/>
	<path class="st20" d="M313.5,184c-0.6,0.7-1.7,1.3-2,1.5l-0.3-0.4c-0.2-0.3-0.5-0.5-0.9-0.5c-0.7-0.1-1.8-0.3-2.4-1
		c-0.5-0.5-1-1.5-1.4-2.2c0,0,0,0,0,0c0,0,0-0.1-0.1-0.1c-0.1-0.3-0.4-1-0.4-1.1c0-0.1,0-0.2,0.1-0.2c0,0,0,0,0,0
		c0.2-0.1,0.6-0.3,0.8-0.1c0.2,0.1,0.6,0.7,1,1.2c0.3,0.4,0.8,0.7,1.3,0.9c0.1,0,0.1,0,0.2,0.1c0,0,0.3-0.2,0.1-0.7l-1.7-4.2
		c1.8,0.1,3.2,2.3,4,4.2C311.8,181.2,313,182.9,313.5,184z"/>
	<path class="st21" d="M289,204.9l-2.7,2.2l-0.5,0.4c0,0-0.6-2.5-1.7-3.5c-0.4-0.3-1.4-0.8-2.1-0.9c-0.4-0.1-0.7-0.3-0.9-0.6
		c-0.5-0.7-1.3-2.3-0.9-5c0.1-0.5,0.2-0.9,0.3-1.1c0,0,0,0,0,0c0.3-0.6,0.7-0.5,0.7-0.5s1.8,1.3,2.3,1.7c0.4,0.3,1,0.9,1.4,0.5
		c0.2-0.2-1.1-1.9-1.4-2.6c-0.4-0.8,0.3-1.6,0.6-1.3c0.3,0.3,2.1,2.6,2.9,4.6C288,200.6,289,204.9,289,204.9z"/>
	<path class="st22" d="M287,205.3l-0.6,1.9l-0.5,0.4c0,0-0.6-2.5-1.7-3.5c-0.4-0.3-1.4-0.8-2.1-0.9c-0.4-0.1-0.7-0.3-0.9-0.6
		c-0.5-0.7-1.3-2.3-0.9-5c0.1-0.5,0.2-0.9,0.3-1.1c0,0,0,0,0,0s0,0.5,0.8,1.1c0.7,0.6,1.8,1.2,2.3,1.6c0.5,0.3,1.3,1.5,1.8,2.7
		C286.1,203,287,205.3,287,205.3z"/>
	<path class="st21" d="M326.1,180.8l0.3,0.7l-0.5,2.4l-7.8,3.9l-0.5-0.1l-1.2-0.2l-2-0.3v-2.7c0-1.4-0.7-2.7-2-3.3
		c-0.1,0-0.1,0-0.1,0c-0.4-0.2-0.9-0.4-1.3-0.9l-0.1-0.1c-1.5-1.6-2.8-5.2-2.4-13c0.1-1.4,0.4-3.7,1-4.9c1.1-2.2,3.5-3.6,8.5-2.2
		c8.2,2.3,11.9,6,12.3,9.3C330.7,172.8,326.1,180.8,326.1,180.8z"/>
	<path class="st9" d="M311.5,186.2l-0.4-1c0,0,1.9-1.2,2.2-1.7c0,0,0.3,0.4,0.6,0.8C313.9,184.4,313.3,185.4,311.5,186.2z"/>
	<path class="st23" d="M311.4,186c0,0,1.9-1.3,2.6-2c0,0,0.7,1.1,1.2,2.1c0.6,1,0.4,3.1,0.4,3.1l-2.6,0.9L311.4,186z"/>
	<path class="st24" d="M314.5,187.5v-2.7c0-1.4-0.7-2.7-2-3.3c0.4,0.2,1.7,0.8,3.3,1.7c0.7,0.4,0.6,2.5,0.6,4.5L314.5,187.5z"/>
	<path class="st25" d="M285.4,207.5l-0.5-1.5c-0.1-0.3-0.1-0.6,0.1-0.9c0.3-0.5,0.7-1.4,1.2-1.9c0.7-0.7,1.7-0.8,2.2-0.4
		c0.2,0.2,0.4,0.7,0.6,1.1c0.1,0.3,0.2,1.2,0.1,1.3c0,0.1-1,1.5-1.1,1.6C287.9,207.1,285.4,207.5,285.4,207.5z"/>
	<path class="st26" d="M334,254.6c-1.8,10.1-3.2,22.5-3.2,22.5s3.1,25-0.4,46.7c-0.2,1-0.5,3.2-1.8,4c-0.7,0.5-2.7,0.8-4.3,0
		c-0.1,0-0.1-0.1-0.2-0.1c-5.2-2.8-4.6-6.5-5.4-8.9c0-9.7,1-33.5-1-38.7l-1.8-21.1l0.7-15.1h18.5v0.1l0.1-0.1
		C335.2,244,336.8,248.1,334,254.6z"/>
	<path class="st27" d="M328.4,255c-1.7,5.7-4,20.6-4.4,24.3c0,0,1.7,28.7,0.3,48.5c-5.2-2.8-4.6-6.5-5.4-8.9c0-9.7,1-33.5-1-38.7
		l-1.8-21.1l0.7-15.1h12.7C329.4,244,330.1,249.3,328.4,255z"/>
	<path class="st26" d="M327.2,249c-0.6,2.6-1.7,6.2-4,9.6c-0.4,0.5-0.7,1.1-1,1.6c-0.1,0.3-1,3.6-2.1,8.2c-1.1,4.5-2.5,10.2-3.4,15
		c0.5,6.1,2,27.3-0.8,45.7c-0.2,1.3-1.1,2.4-2.4,2.7c-0.6,0.2-1.3,0.3-2,0.2c-0.5,0-1.1-0.2-1.7-0.4c-3-1.3-5.2-6.1-5.2-6.1
		s-0.1-30.6-1.7-38.6c-0.3-1.5-0.5-3.1-0.6-4.6c-0.3-4.9-0.8-13.9-1-17.6c-0.3-7.3-0.4-13.4-0.1-16.1l15.1,0.2L327.2,249z"/>
	<path class="st27" d="M316.4,248.9c-0.1,0.9-0.1,1.5-0.1,1.5s-0.2,3.8-2.1,9.5c-1.9,5.7-3.8,19.2-4,24.3
		c-0.2,4.7,2.3,26.9,1.4,47.9c-0.5,0-1.1-0.2-1.7-0.4c-3-1.3-5.2-6.1-5.2-6.1s-0.1-30.6-1.7-38.6c-0.3-1.5-0.5-3.1-0.6-4.6
		c-0.3-4.9-0.8-13.9-1-17.6c-0.3-7.3-0.4-13.4-0.1-16.1L316.4,248.9z"/>
	<path class="st28" d="M337,206.4c-2.4,7.4-3.8,19.6-2.3,24.6c1.5,5.1,2.3,12.3,2.3,12.3c-1.4,3.8-14.3,12.1-21.5,12.7
		c-0.9,0.1-1.8,0-2.6-0.1c-6.3-0.9-12.3-6.6-12.3-6.6s1.4-20.8,2.2-34.2c0.6-8.9,1.9-14.4,2.7-17.1c0.4-1.4,0.7-2,0.7-2
		c0.8-1,3-2.7,5.9-4.6c0,0,0,0,0.1,0c1.9-1.3,4.1-2.7,6.4-4h0c3-1.8,5.9-3.4,8.3-4.6c0.3-0.1,0.5-0.3,0.8-0.4c1.7-0.8,3-1.4,3.7-1.5
		c3.4-0.6,7.9,1.2,9.3,7.3C342.1,194.4,339.4,199,337,206.4z"/>
	<path class="st23" d="M312.1,230.9c-0.4,5.7,0.4,19.9,0.8,24.9c-6.3-0.9-12.3-6.6-12.3-6.6s1.4-20.8,2.2-34.2
		c0.6-8.9,1.9-14.4,2.7-17.1c0.7-0.8,1.1-1.3,1.1-1.3h8.3c0,0,4.3,0.9,2.8,10.8C316.2,217.5,312.6,224,312.1,230.9z"/>
	<path class="st29" d="M274,166.8"/>
	<path class="st23" d="M327.8,185.6c-1.3,1.7-5.8,4.3-7.9,4.7c-2.1,0.4-3.8,0.2-4.8,0.2c-1.4,0-2.5,0.7-2.9,0.9c0,0-0.1,0-0.1,0
		c0,0,0,0,0,0l1.2-1.9l1.4-0.9c0,0,2.1-0.8,2.6-1c0.2-0.1,0.6-0.1,1.2-0.2h0c1.3-0.2,3.1-0.3,3.3-0.3c0.4-0.1,3.7-2.3,3.8-2.4
		c0.1-0.1,0.7-1.1,1.2-1.9c0.3-0.1,0.5-0.3,0.8-0.4C328.2,183.1,328.8,184.3,327.8,185.6z"/>
	<path class="st30" d="M332.4,169.9c-0.7,4.2-4.3,10.9-6.1,11.5c-1.1,0.4-2.1,0.5-3,0.6c-1.4,0.1-2.7-0.9-2.9-2.3
		c-0.2-1.2-0.6-2.7-1.2-3.8c-1.3-2.3-2.9-3.6-3.8-3.1c-0.8,0.4-0.7,1.9-0.7,1.9l-0.5,0c0,0-0.1-0.5-0.1-1.1
		c-0.1-0.6-0.1-1.4-0.2-2.1c0-1.6-0.5-3.1-1.5-4.4c-0.6-0.8-1.3-2-2-3.7c-0.5-1.2-0.6-2.3-0.5-3.4v0c0.3-3.3,1.7-4.6,2.9-5.5
		c4.1-3,12.7,2.6,15.9,5.2c1.7,1.5,2.9,3.1,3.6,5.1v0C332.6,166.2,332.7,168,332.4,169.9z"/>
	<path class="st9" d="M327.2,182.3l-0.8-0.7c-5.1,5.7-11.9,5.9-11.9,5.9s-1.9,1.9-2.4,4l1.1-0.7c0.6-0.4,1.2-0.6,1.9-0.7
		c0.4-0.1,1.4-0.1,1.4-0.1c4.2-0.1,8.5-3,10.7-4.8C328,184.4,328,183.1,327.2,182.3z"/>
	<path class="st31" d="M285.6,205.7"/>
	<path class="st31" d="M277.6,186.5"/>
	<path class="st32" d="M308,323c0.1,0.1,0.2,0.3,0.3,0.4C308.2,323.2,308.1,323.1,308,323z"/>
	<path class="st32" d="M308.4,323.5c-0.1-0.1-0.1-0.1-0.1-0.2c0.1,0.1,0.2,0.2,0.3,0.3C308.5,323.6,308.5,323.6,308.4,323.5z"/>
	<path class="st26" d="M315.9,203.7c-0.8,4.7-9.7,18.3-10.1,18.8c-1.6,2.6-3.2,4.8-4.5,6.4h0c-1.2,1.5-2.2,2.4-2.8,2.6
		c-0.1,0-0.2,0.1-0.4,0.1c-2.8,0.7-4.9-1.1-5.6-3.1c-0.7-1.6-2.9-5.3-4.6-10.2c-1.2-3.2-1.9-7.1-2.7-10.3c-0.2-0.8-0.1-1.6,0.3-2.3
		c0-0.1,0.1-0.1,0.1-0.2c0.5-0.8,1.2-1.8,1.8-1.9c1.1-0.2,1.3,0.1,1.3,0.1s2,3.3,3.7,5.8c1.3,2,2.7,5.4,3.2,6.9
		c0.2,0.4,0.3,0.7,0.3,0.7c2.9-6.8,6.8-15.2,8.3-18.8c1.9-4.3,7.6-5.2,10.6-1.6c0,0.1,0.1,0.1,0.1,0.2c0.2,0.2,0.3,0.5,0.4,0.9l0,0
		c0,0,0,0,0,0C315.8,198,316.7,199.4,315.9,203.7z"/>
	<path class="st16" d="M332.4,169.9c-0.7,4.2-4.3,10.9-6.1,11.5c-1.1,0.4-2.1,0.5-3,0.6c-1.4,0.1-2.7-0.9-2.9-2.3
		c-0.2-1.2-0.6-2.7-1.2-3.8c-1.3-2.3-2.9-3.6-3.8-3.1c-0.8,0.4-0.7,1.9-0.7,1.9l-0.5,0c0,0-0.1-0.5-0.1-1.1
		c-0.1-0.6-0.1-1.4-0.2-2.1c0-1.6-0.5-3.1-1.5-4.4c-0.6-0.8-1.3-2-2-3.7c-0.5-1.2-0.6-2.3-0.5-3.4c0.4,1,3.8,9,13.4,11
		c10,2.1,9-5.8,9-6.2C332.6,166.2,332.7,168,332.4,169.9z"/>
	<path class="st33" d="M295.2,221.3c0,0-0.5-3.5,0.5-4.8c0.2,0.4,0.3,0.7,0.3,0.7S295.1,219.1,295.2,221.3z"/>
	<path class="st27" d="M315.6,197.8L315.6,197.8c0,0,0.3,3.9-3.4,10.4c-3.7,6.5-11.6,22.1-15.4,21.6c-2-0.2-2.8-3.5-3.6-4.1
		c-1.8-1.3-3-5.8-4.7-10.3c-1.3-3.6-2.4-8.3-2.7-10c0,0.1-0.1,0.1-0.1,0.2c-0.4,0.7-0.5,1.5-0.3,2.3c0.8,3.2,1.5,7.1,2.7,10.3
		c1.8,4.8,3.9,8.6,4.6,10.2c0.8,2,2.9,3.8,5.6,3.1v0c0.1,0,0.2-0.1,0.4-0.1c0.6-0.2,1.6-1.1,2.8-2.6h0c1.3-1.6,2.9-3.8,4.5-6.4
		c0.4-0.5,9.3-14.1,10.1-18.8C316.7,199.4,315.8,198,315.6,197.8z"/>
</g>
<g>
	<polygon class="st13" points="164.7,287.3 189.6,302.5 194.9,299.4 169.9,284.1 	"/>
	<polygon class="st3" points="194.9,275.7 194.9,296.5 189.6,299.6 189.6,278.9 	"/>
	<polygon class="st34" points="169.9,260.4 169.9,281.2 164.7,284.4 164.7,263.6 	"/>
	<polygon class="st3" points="194.9,275.7 194.9,296.5 189.6,299.6 189.6,278.9 	"/>
	<polygon class="st2" points="164.7,263.6 189.6,278.9 194.9,275.7 169.9,260.4 	"/>
	<polygon class="st34" points="189.6,299.6 164.7,284.4 164.7,263.6 189.6,278.9 	"/>
	<polygon class="st3" points="164.7,263.6 177.1,281.6 189.6,278.9 	"/>
	<path class="st35" d="M184.9,268.2v4.1c0,0.3-0.2,0.5-0.4,0.6c-0.1,0-0.2,0-0.2,0c-0.4,0-0.7-0.3-0.7-0.7v-4.1c0-0.4-0.2-0.8-0.5-1
		l-6.2-3.8c-0.1-0.1-0.3-0.1-0.5,0c0,0-0.1,0-0.1,0.1c0,0,0,0,0,0c-0.1,0.1-0.1,0.2-0.1,0.3v3.1c0,0.3-0.2,0.5-0.4,0.6
		c-0.1,0-0.2,0.1-0.3,0.1c-0.4,0-0.7-0.3-0.7-0.7v-3.1c0-0.7,0.3-1.3,0.9-1.6c0.1-0.1,0.3-0.1,0.4-0.2c0.5-0.1,1-0.1,1.4,0.2
		l6.2,3.8C184.4,266.5,184.9,267.3,184.9,268.2z"/>
	<polygon class="st36" points="178.6,280.9 178.6,283 178.1,283.3 178.1,281.2 	"/>
	<polygon class="st37" points="175.5,279.6 178.1,281.2 178.6,280.9 176,279.3 	"/>
	<polygon class="st38" points="178.1,283.3 175.5,281.7 175.5,279.6 178.1,281.2 	"/>
	<path class="st39" d="M184.9,268.2v4.1c0,0.3-0.2,0.5-0.4,0.6v-4.1c0-1.5-0.6-2-0.6-2L176,262c0.5-0.1,1-0.1,1.4,0.2l6.2,3.8
		C184.4,266.5,184.9,267.3,184.9,268.2z"/>
	<path class="st39" d="M176.1,263.5c-0.1,0.1-0.1,0.2-0.1,0.3v3.1c0,0.3-0.2,0.5-0.4,0.6v-3.1C175.6,263.8,176,263.5,176.1,263.5z"
		/>
</g>
<g>
	<path class="st15" d="M197.3,265.9c0,0,0.4,1.6,0.6,2.9c0.2,1.3,0.3,3,0.4,4.4c0.2,1.4,1.5,4.8,2.1,5.6c0.6,0.8,1.6,1.8,2.9,2.1
		c1.9,0.5,4,0.1,4.5-0.1c0.8-0.3,1.2-1.2,1.2-1.2"/>
	<path class="st15" d="M231.9,260.8c0,0.9-1.3,1.5-2.6,1.6c-1.3,0.1-2.7-0.2-4.3-0.6c-1.6-0.4-2.2-0.8-3.4-1.3
		c-1.2-0.5-2.5-0.2-2.5-0.2s0,0.1,0,0.3c0,0-3.1,0.4-6-1c0,0,0,0,0,0c0,0,0-0.7,0-1.3c0-0.5,0.1-1.3,0.1-1.3l18.7,3.1V260.8z"/>
	<path class="st40" d="M209.5,278.2c0,0.2,0,0.3-0.1,0.5c-0.2,0.9-0.7,1.6-1.6,1.9c-1.8,0.6-5,0.3-6.6-1.5s-2.7-6.2-2.7-8.9
		c0-2.7-1.4-5.1-1.4-5.1h7.3c0.1,0.1,0.1,0.1,0.2,0.2c1.3,1.8,4.5,8.4,4.8,10.6C209.5,276.8,209.6,277.5,209.5,278.2z"/>
	<path class="st41" d="M209.5,278.2c0,0-0.1-0.1-0.1-0.2c-0.3-1.7-2-5.1-2.9-6.8c-0.9-1.8-2.5-5-2.5-5s0.2-0.4,0.5-0.9
		c1.3,1.8,4.5,8.4,4.8,10.6C209.5,276.8,209.6,277.5,209.5,278.2z"/>
	<path class="st42" d="M209.5,278.7c-0.2,0.9-0.7,1.6-1.6,1.9c-1.8,0.6-5,0.3-6.6-1.5s-2.7-6.2-2.7-8.9c0-2.7-1.4-5.1-1.4-5.1h3
		l0.2,1.5c0,0,0.1,6.2,1.6,9.3c1.5,3.1,4.2,3.7,5.3,3.6C208.4,279.5,209.1,279.3,209.5,278.7C209.5,278.7,209.5,278.7,209.5,278.7z"
		/>
	<path class="st40" d="M231.9,260.5c0,0.4-0.3,0.8-0.7,0.9c-1.2,0.6-3.8,0.4-5.3,0c-1.6-0.4-4.4-1.7-6-1.9c-1.5-0.2-4.5-0.4-5.2-0.6
		c-0.8-0.2-1.5-0.6-1.7-2.1c-0.2-1.4,0.6-2.6,0.6-2.6l1.2,0.1l7.1,0.5l0.2,0c0,0,2.5,0.9,3.6,1.3c1.2,0.4,3.6,0.8,5.1,2.2
		c0.3,0.2,0.5,0.5,0.6,0.7l0,0C231.8,259.6,231.9,260.1,231.9,260.5z"/>
	<path class="st41" d="M231.4,259c-1.2-1-3.6-1.7-5.5-2.2c-2-0.5-3.9-1.1-3.9-1.1s0-0.4-0.1-0.9l0.2,0c0,0,2.5,0.9,3.6,1.3
		c1.2,0.4,3.6,0.8,5.1,2.2C231,258.5,231.2,258.8,231.4,259z"/>
	<path class="st42" d="M231.9,260.5c0,0.4-0.3,0.8-0.7,0.9c-1.2,0.6-3.8,0.4-5.3,0c-1.6-0.4-4.4-1.7-6-1.9c-1.5-0.2-4.5-0.4-5.2-0.6
		c-0.8-0.2-1.5-0.6-1.7-2.1c-0.2-1.4,0.6-2.6,0.6-2.6l1.2,0.1l0,0.4c0,0-1.1,1.5-0.4,2.7s3.5,1,5.2,1.2c1.7,0.2,4.1,1.6,6.4,2
		C228.3,260.9,231.1,261.3,231.9,260.5L231.9,260.5z"/>
	<path class="st26" d="M226.4,216.1c-0.3,1.2-0.5,2.3-0.7,3.4c0,0,0,0.1,0,0.1c-0.2,1.1-0.3,2.1-0.5,3.1c0,0,0,0.1,0,0.1
		c0,0.1,0,0.3-0.1,0.5c0,0.3-0.1,0.5-0.1,0.7c-0.3,2-0.9,6.2-1.4,11.8c0,0,0,0.1,0,0.1c-0.2,1.9-0.4,4.4-0.5,7.1
		c0,0.6-0.1,1.2-0.1,1.9c-0.2,3.5-0.3,7.1-0.4,9.7c0,0.7-0.4,1.3-1,1.6c-0.5,0.3-1,0.4-1.5,0.4c-1.6,0-2.8-0.2-3.8-0.5
		c-0.9-0.3-1.6-0.7-2.1-1.1c-0.5-0.4-0.8-1-0.8-1.7c0.1-2.2,0.2-8.1,0-14c-0.3-7.5-0.9-21.6-0.9-21.6l2.6-23.6l4.9-1.1
		c-0.3-1.4-0.5-2.9-0.7-4.1c-0.1-0.9-0.2-1.4-0.2-1.4h9.6c0,0,0,0.1,0,0.4C228.8,190.6,229.3,204.7,226.4,216.1z"/>
	<path class="st43" d="M226.4,216.1c-0.3,1.2-0.5,2.3-0.7,3.4c0.1-0.8,1-8.6,1.4-12.6c0.4-4.2-0.3-17.4-0.3-17.4s0.8-0.7,1.8-1.6
		C228.8,190.6,229.3,204.7,226.4,216.1z"/>
	<path class="st27" d="M222.2,191.3c0,0-0.2,13.6-3.5,27.6c-2,8.5-2.4,25.3-2.4,37.4c-0.9-0.3-1.6-0.7-2.1-1.1
		c-0.5-0.4-0.8-1-0.8-1.7c0.1-2.2,0.2-8.1,0-14c-0.3-7.5-0.9-21.6-0.9-21.6l2.6-23.6l4.9-1.1c-0.3-1.4-0.5-2.9-0.7-4.1L222.2,191.3z
		"/>
	<path class="st26" d="M218.1,192.5c0,0,0.8,17.1-5.6,35.9c0,0,0,0,0,0c-1.2,3-2.1,5.4-2.4,6.5c-0.5,2.1-3,23.4-3.5,28.5
		c-0.1,0.8-0.4,1.6-0.8,2.4c-0.9,1.4-2.2,2.6-4.5,2.4c-0.7-0.1-1.3-0.2-1.9-0.4c-1-0.3-1.9-0.7-2.5-1c-0.6-0.3-1-1-1-1.7
		c0.2-5.5,0.9-29.6,1.3-32.7c0.5-3.4,2.6-10.8,3.6-24.4c0.1-2,0-4-0.6-5.8c-1.7-5-0.2-9.5-0.2-9.5s0.6,0.2,1.4,0.5
		c0-1.3-0.1-1.9-0.1-1.9l0.5,0l16.8,0.4L218.1,192.5z"/>
	<path class="st27" d="M207.2,202.7c0.5,4.8-5,26-5.5,31.5c-0.6,5.5-2.3,33.6-2.3,33.6s0,0,0,0c-1-0.3-1.9-0.7-2.5-1
		c-0.6-0.3-1-1-1-1.7c0.2-5.5,0.9-29.6,1.3-32.7c0.5-3.4,2.6-10.8,3.6-24.4c0.1-2,0-4-0.6-5.8c-1.7-5-0.2-9.5-0.2-9.5
		s0.6,0.2,1.4,0.5c0-1.3-0.1-1.9-0.1-1.9l0.5,0c3,1.7,5.6,3.3,5.6,3.3S206.7,197.9,207.2,202.7z"/>
	<path class="st44" d="M199.9,192.2c0,0-0.2,0.5-0.3,1.3c0,0.2,0.1,0.5,0.3,0.6c0.5,0.3,1.5,0.9,3.6,1.7c2.3,0.9,5.5,1,7.7,0.8
		c0.9-0.1,10.2-2.1,15.8-5.6c1.4-0.9,2.1-2.6,1.9-4.2l0,0C228.7,185.7,199.9,192.2,199.9,192.2z"/>
	<path class="st9" d="M235.6,164.5c-0.4,0.3-0.8,0.6-1.2,0.8c0,0,0,0,0,0c-0.1,0-0.1,0.1-0.1,0.1c-1.9,1.1-4.3,1.8-6.7,2.2
		c0,1-0.1,2.1-0.1,3.1c-0.1,2.3,0.1,4.6,0.5,6.9c0.3,1.9,0.7,4.3,1,6c0.5,3.4-0.4,5.9-2.1,6.9c0,0,0,0,0,0c0,0,0,0,0,0
		c-5.4,3.4-11.7,4.9-15.1,5.5c-0.5,0.1-1.1,0.2-1.6,0.2c-1.2,0.1-2.3,0.1-3.5-0.1c-0.5-0.1-0.9-0.2-1.4-0.3l-0.4-0.1
		c-0.5-0.2-1-0.4-1.5-0.7c-2.2-1.4-2.4-2.5-2.5-3.7c-0.1-1.1,1.3-6.6,1.6-8.4c0.1-0.5,0.1-0.7,0.1-0.7c0-0.1,0-0.3,0.1-0.4
		c0.1-0.7,0.1-1.3,0-1.9c0,0,0,0,0-0.1c0-0.4-0.1-0.8-0.2-1.2c0-0.1-0.1-0.2-0.1-0.3c0,0,0,0,0,0c0,0,0-0.1,0-0.1
		c-2.2-1-4.1-3.6-6.3-8.5c-2.1-4.7-1.8-14.6-1.2-18.5c0.1-0.6,0.2-1,0.3-1.3c0.4-1,1.5-2.3,2.8-3.4c0,0,0,0,0,0
		c1.3-1.2,2.8-2.2,3.7-2.8c0,0,0.1-0.1,0.1-0.1c0.9-0.6,1.7-1.1,2.9-1.7c1-0.5,2.2-1,3.9-1.7c0.6-0.2,1.3-0.5,1.9-0.7
		c1.2-0.4,2.4-0.7,3.6-0.9c1.9-0.4,3.8-0.7,5.7-1.1c0.3,0,0.6,0,1,0c4.7,0.3,8.9,3.3,11,7.6c1.8,3.5,4.2,8.8,4.7,12.3
		C237,161.5,236.7,163.4,235.6,164.5z"/>
	<path class="st45" d="M223.7,167.6c-1.9,1.8-5.9,5.1-10.3,6.9c-3.8,1.5-7.2,1.7-9.2,1.7c-0.9,0.1-1.5,0-1.9-0.2
		c-1.3-0.6-3.2-2.7-5-8.4c-1.5-4.7-1-12.6-0.2-17.6c2.8-4.8,7.2-5.4,7.2-5.4l0,0c2,0.5,3.7,0.2,5-0.2c1.4-0.4,2.8-0.4,4.1,0.1
		c1.7,0.7,3.2,1.1,3.2,1.1l1.2,0.9l0.8,12.9l1.4-3.2l-1.1-11l-4.1-5.3l-4.5-0.5c-0.6,0.2-1.3,0.4-1.9,0.7c-2.8,1.1-4.2,1.8-5.4,2.5
		c0,0-0.1,0-0.1,0.1c-0.1,0.1-0.3,0.2-0.4,0.3c-0.2,0.1-0.3,0.2-0.5,0.3c-0.1,0.1-0.2,0.1-0.3,0.2c0,0-0.1,0.1-0.1,0.1
		c-1,0.6-2.4,1.7-3.7,2.8c0,0,0,0,0,0c-1.3,1.1-2.4,2.4-2.8,3.4c0,0.1,0,0.1-0.1,0.2c-0.1,0.3-0.2,0.6-0.2,1.1c0,0,0,0,0,0
		c-0.7,3.9-0.9,13.8,1.2,18.5c2.1,4.8,4,7.5,6.3,8.5c0,0,11.6,1.6,22-10.4C224,167.6,223.9,167.6,223.7,167.6z"/>
	<path class="st46" d="M209.3,133.2v5.1c0,0,5.2,3.8,8,3.2c1.2-0.2,1.8-1.8,1.6-3.9l-2.5-0.5L209.3,133.2z"/>
	<path class="st9" d="M218,141.3l2.1,2.8c0,0,1-3.5-1-5.6c-1.9-2.1-2-0.3-2-0.3S218.9,140.3,218,141.3z"/>
	<path class="st21" d="M223.8,126.4c0,0,0.4,4.3-0.5,8.2c-0.9,3.9-1.2,4.8-2.7,5.5c-1.6,0.7-3,0.8-5.7-0.9c-2.7-1.7-4.1-4.5-4.1-4.5
		s-0.4,0.2-1.3-0.8c-1.5-1.7-1.8-2.5-1.8-4.8c0-2.3,0.6-5.1,2.3-8.1c1.8-3,7.2-2,9.7-0.8C222.2,121.5,223.3,123.9,223.8,126.4z"/>
	<path class="st30" d="M225.9,126.6c-2.7,4.8-9.5,1.6-9.5,1.6c-0.5,2.1-2,2.3-2.7,2.7c-0.7,0.4-0.8,2.4-0.8,2.4h-0.6c0,0,0-2-0.3-3
		c-0.3-1-2.2-1.8-3.2-0.3c-0.9,1.3,0.1,2.8,0.7,3.9c0.2,1.7-0.2,2.5-0.2,2.5s-1-1-1.7-3.1c-0.7-2.1-1.2-6.4,0-11.1
		c0.1-0.5,0.3-0.9,0.6-1.3c2.1-3.5,8-4.2,10.3-3.4c2,0.7,7,2.9,7.9,6.1C226.6,124.5,226.6,125.5,225.9,126.6z"/>
	<path class="st26" d="M226.1,222.2c0,0.3-0.1,0.5-0.1,0.7C226.1,222.6,226.1,222.4,226.1,222.2z"/>
	<path class="st26" d="M226.2,221.6c0,0,0,0.1,0,0.1C226.2,221.6,226.2,221.6,226.2,221.6z"/>
	<path class="st47" d="M205.2,162c0,0-1-4.4-0.9-7.2c0.2-2.9,1.7-0.3,1.9,2c0.2,2.3,1.5,7.4,1.5,7.4"/>
	<path class="st9" d="M209.3,137.8c0,0-0.3,0.4-0.6,1.1c-0.2,0.5-0.4,1.2-0.4,1.2s2.8,3.3,8.6,5.1l0-3.6
		C217.1,141.6,211.9,140.9,209.3,137.8z"/>
	<path class="st21" d="M213,165.3c0,0-2.2-0.2-6.2,1.5c-0.9-2.2-1.4-3.8-1.6-4.9c0-0.1,0-0.1,0.1-0.2c1.1-1.8,7.3-0.7,7.3-0.7
		L213,165.3z"/>
	<path class="st21" d="M227,158.4c-1.2,0-2.8,0.2-4.2,0.4c0.1-0.3,0.2-4.7,3.5-5.1c0.3,1.4,0.5,2.7,0.6,3.5c0,0.2,0,0.4,0.1,0.5
		c0,0.1,0,0.3,0,0.4C227,158.3,227,158.4,227,158.4z"/>
	<path class="st14" d="M227.5,167.6c0,0-0.5,0.7-1.5,1.9v0c-1.4,1.7-3.8,4.3-7.3,6.7c-0.9,0.6-1.9,1.3-2.9,1.9
		c-0.1,0-0.1,0.1-0.2,0.1c-4.6,2.7-7.7,7.5-8.2,12.8c-0.2,1.7-0.2,3.1,0,3.6c0.4,1.1,1.8,1.5,2.7,1.6c-1.2,0.1-2.3,0.1-3.5-0.1
		c-0.5-0.1-0.9-0.2-1.4-0.3l-0.4-0.1c-0.5-0.2-1-0.4-1.5-0.7c-2.2-1.4-2.4-2.5-2.5-3.7c-0.1-1.1,1.3-6.6,1.6-8.4
		c0.1-0.5,0.1-0.7,0.1-0.7c0.1-0.8,0.2-1.6,0.1-2.3c0,0,0,0,0-0.1c0-0.4-0.1-0.8-0.2-1.2c0-0.1-0.1-0.2-0.1-0.3c0,0,0,0,0,0
		c0,0,0-0.1,0-0.1c0,0,7.2,1,15.3-4.5c2.2-1.5,4.5-3.4,6.7-6c0,0,0.1,0,0.3,0C225.1,167.7,226.8,167.7,227.5,167.6z"/>
	<path class="st14" d="M202.5,181.4c0,0-3.2,8.9-3.1,11.1c0.1,2.3,7.3,3.5,7.3,3.5l-3.1-8.2L202.5,181.4z"/>
	<path class="st47" d="M223.9,146.5c0,0,0.5-0.6,1.4,0.7c1,1.3,4.4,9.4,4.5,11.2c0.1,1.8-10.4,0.9-10.4,0.9s4.9-0.8,7.6-0.9
		C227.1,158.4,226.1,149.5,223.9,146.5z"/>
	<path class="st45" d="M206.8,166.9c0,0-1.1,1.3-0.9,2.1c0.2,0.8,1.5-0.4,4.2-1c2.8-0.6,10.7-0.5,10.7-0.5s-6.4-1.4-7.8-1.3
		l-0.1-0.7C213,165.3,210.1,165.1,206.8,166.9z"/>
	<path class="st26" d="M217.1,141.6l0,3.6l1.2,1.1l1.7-0.6v-1.8l-2.1-2.8C218,141.3,217.8,141.5,217.1,141.6z"/>
	<path class="st26" d="M218.7,159.5c-0.1-7.1-0.3-13.1-0.3-13.1l1.7-0.6c0.6,2.7,1.4,7.7,2.2,13
		C222.2,158.9,220.8,159.1,218.7,159.5z"/>
	<path class="st26" d="M224.8,178.5l-1.8,4.6c-0.1,0.3-0.4,0.3-0.6,0.2l-3.3-2.7c-0.3-0.3-0.5-0.7-0.5-1.1c0.1-0.9,0.1-2,0.1-3.2
		c0-1.1,0-2.3,0-3.6v0c0.2-0.2,0.4-0.3,0.7-0.5c0.2-0.2,0.4-0.3,0.6-0.5c0.4-0.3,0.9-0.7,1.3-1.2c0.3-0.2,0.5-0.5,0.8-0.7
		c0.1-0.1,0.3-0.3,0.4-0.4c0.2-0.2,0.5-0.5,0.7-0.8c0.1-0.1,0.2-0.2,0.3-0.3c0.2,1.2,0.3,2.4,0.5,3.5c0.4,2.9,0.7,5.1,0.8,6
		C224.9,178,224.9,178.3,224.8,178.5z"/>
	<path class="st14" d="M224.1,171.7c-1.4,1.4-3.1,3-5.3,4.5c0-1.1,0-2.3,0-3.6v0c0.2-0.2,0.4-0.3,0.7-0.5c0.9-0.8,1.8-1.5,2.7-2.4
		c0.1-0.1,0.3-0.3,0.4-0.4c0.2-0.2,0.5-0.5,0.7-0.8c0.1-0.1,0.2-0.2,0.3-0.3C223.8,169.5,223.9,170.6,224.1,171.7z"/>
	<path class="st16" d="M225.9,126.6c-2.7,4.8-9.5,1.6-9.5,1.6c-0.5,2.1-2,2.3-2.7,2.7c-0.7,0.4-0.8,2.4-0.8,2.4h-0.6c0,0,0-2-0.3-3
		c-0.3-1-2.2-1.8-3.2-0.3c-0.9,1.3,0.1,2.8,0.7,3.9c0.2,1.7-0.2,2.5-0.2,2.5s-1-1-1.7-3.1c-0.7-2.1-1.2-6.4,0-11.1
		c0.1-0.5,0.3-0.9,0.6-1.3c1.1,1,4.4,3.6,7.8,5.1c4.2,1.8,7.5,1.4,8.6,0.5c1.1-0.9,1.6-1.6,1.8-2.8l0,0
		C226.6,124.5,226.6,125.5,225.9,126.6z"/>
</g>
<g>
	<path class="st16" d="M132.3,191.7c0-0.2,0.1-0.5,0.1-0.7C132.3,191.2,132.3,191.4,132.3,191.7z"/>
	<path class="st16" d="M132.5,190.4c0,0,0-0.1,0-0.1C132.5,190.3,132.5,190.4,132.5,190.4z"/>
</g>
<g>
	<path class="st13" d="M294.9,369.1c0.2-0.1,0.2-0.3,0-0.4l-15.9-9.8c0,0,0,0,0,0c0,0,0,0,0,0l-0.1-0.1c0,0-0.1,0-0.1,0
		c-0.2-0.1-0.3-0.1-0.5-0.1c-0.3,0-0.6,0-1,0.2l-2.4-1.5c1.3-1,2.1-2.3,2.1-3.7l0.1-2c0.1-3.7-4.9-6.8-11.2-7
		c-6.3-0.2-11.4,2.6-11.6,6.3l0,0v0.1c0,0,0,0,0,0l-0.1,2c0,0,0,0,0,0l0,0.3l0,0c0.2,3.6,5.1,6.5,11.2,6.7c2.6,0.1,5.1-0.4,7-1.2
		c0,0,0.1,0.1,0.1,0.1c0.1,0,0.1,0.1,0.2,0.1l3.2,2c0,0.4,0,0.7,0.1,1c0.1,0.3,0.3,0.5,0.5,0.7c0.1,0.1,0.2,0.1,0.3,0.2l13.6,8.4
		c0.3,0.2,0.6,0.2,0.9,0C292.2,370.7,294.1,369.5,294.9,369.1z M265.5,356.9c-5.3-0.2-9.5-2.8-9.4-5.9c0,0,0.2-0.9,1.2-2
		c-0.5,0.6-0.7,1.3-0.8,2c0,0.2,0,0.3,0,0.5c0,0,0,0.1,0,0.1c0,0.1,0.1,0.3,0.1,0.4c0,0.1,0,0.1,0.1,0.2c0,0.1,0.1,0.2,0.1,0.3
		c0,0.1,0,0.1,0.1,0.2c0.1,0.1,0.1,0.2,0.2,0.3c0,0,0.1,0.1,0.1,0.1c0.1,0.1,0.2,0.3,0.3,0.4c0,0,0.1,0.1,0.1,0.1
		c0.1,0.1,0.2,0.2,0.3,0.3c0.1,0.1,0.2,0.1,0.2,0.2c0,0,0.1,0.1,0.1,0.1c0.8,0.7,1.9,1.2,3.1,1.6c1.2,0.4,2.7,0.6,4.1,0.7
		c5.1,0.1,9.3-2.1,9.4-5c0.1-1.9-1.6-3.5-4.1-4.6c0,0-0.1,0-0.1-0.1c-0.3-0.1-0.5-0.2-0.8-0.3c3,0.9,4.4,2.4,5.1,3.6
		c0.1,0.4,0.2,0.8,0.2,1.3C275.2,354.6,270.8,357,265.5,356.9z"/>
	<path class="st48" d="M277.3,346.2l-2.7-2.8l-7.8-1.9l-7.9,1.5l-2.9,2.6l-0.7,1.6l1.1,0.4c0,0,1.3-5.4,10.3-5.1
		c9,0.3,10,5.7,10,5.7l1.1-0.3L277.3,346.2z"/>
	<path class="st14" d="M277.9,348.5c-0.4-1-1.2-1.9-2.3-2.7c0.5,0.7,0.8,1.6,0.8,2.4c-0.1,3.2-4.7,5.7-10.2,5.6
		c-5.5-0.2-9.9-2.9-9.8-6.2c0-0.8,0.4-1.6,0.9-2.3c-1.2,0.8-2.1,1.8-2.5,2.8l-0.3-0.6l-0.1,2.2c0,0,0,0,0,0c0,0,0,0,0,0l0,0.3l0,0
		c0.2,3.7,5.3,6.8,11.7,7c6.6,0.2,12-2.8,12.1-6.6l0.1-2.1L277.9,348.5z"/>
	<path class="st49" d="M266.7,340.9c-6.6-0.2-12,2.8-12.1,6.6c0,0.4,0,0.7,0.1,1c0.8,3.4,5.6,6.1,11.6,6.3c6,0.2,11-2.3,11.9-5.6
		c0.1-0.3,0.2-0.7,0.2-1C278.5,344.4,273.2,341.1,266.7,340.9z M266.3,353.8c-5.5-0.2-9.9-2.9-9.8-6.2c0-0.8,0.4-1.6,0.9-2.3
		c1.6-2,5.2-3.3,9.3-3.2c4.1,0.1,7.6,1.7,9.1,3.8c0.5,0.7,0.8,1.6,0.8,2.4C276.4,351.5,271.8,353.9,266.3,353.8z"/>
	<path class="st9" d="M266.7,340.9c-6.6-0.2-12,2.8-12.1,6.6c0,0.4,0,0.7,0.1,1c0.8,3.4,5.6,6.1,11.6,6.3c6,0.2,11-2.3,11.9-5.6
		c0.1-0.3,0.2-0.7,0.2-1C278.5,344.4,273.2,341.1,266.7,340.9z M266.3,353.8c-5.5-0.2-9.9-2.9-9.8-6.2c0-0.8,0.4-1.6,0.9-2.3
		c1.6-2,5.2-3.3,9.3-3.2c4.1,0.1,7.6,1.7,9.1,3.8c0.5,0.7,0.8,1.6,0.8,2.4C276.4,351.5,271.8,353.9,266.3,353.8z"/>
	<path class="st14" d="M279.8,356.5l-0.2,0.3c0,0,0,0,0,0l-1,1.5l-0.3,0.4l-4.5-2.8l0,0c-0.1,0-0.1-0.1-0.2-0.1
		c-0.1-0.1-0.2-0.3-0.3-0.4c0-0.1-0.1-0.2-0.1-0.3l0,0c0-0.3,0-0.6,0.1-0.9c0.2-0.4,0.5-0.6,0.8-0.8c0.2-0.1,0.3-0.1,0.5-0.1
		c0.1,0,0.2,0,0.3,0.1c0,0,0,0,0,0l0.1,0c0,0,0,0,0,0L279.8,356.5z"/>
	<path class="st9" d="M279.8,356.5l-0.2,0.3c0,0,0,0,0,0l-5.4-3.3c0.2-0.1,0.3-0.1,0.5-0.1c0.1,0,0.2,0,0.3,0.1c0,0,0,0,0,0l0.1,0
		c0,0,0,0,0,0L279.8,356.5z"/>
	<path class="st48" d="M278.5,358.4l-0.3,0.4l-4.5-2.8l0,0c-0.1,0-0.1-0.1-0.2-0.1c-0.1-0.1-0.2-0.3-0.3-0.4c0-0.1-0.1-0.2-0.1-0.3
		L278.5,358.4z"/>
	<path class="st50" d="M294,364.3l-0.6,1.1l-1.7,2.9l-13.6-8.4c0,0,0,0,0,0l0,0c-0.1,0-0.2-0.1-0.3-0.2c-0.2-0.2-0.4-0.4-0.5-0.7
		c-0.2-0.6-0.2-1.3,0.1-2c0.1-0.3,0.3-0.5,0.5-0.7c0,0,0,0,0,0c0.5-0.5,1.1-0.8,1.8-0.8c0.2,0,0.3,0.1,0.5,0.1c0,0,0.1,0,0.1,0
		l0.1,0.1c0,0,0,0,0,0c0,0,0,0,0,0L294,364.3z"/>
	<path class="st51" d="M294,364.3l-0.6,1.1l-1.6-0.5l-13.9-8.6c0,0,0,0,0,0c0,0,0,0,0,0c0.5-0.5,1.1-0.8,1.8-0.8
		c0.2,0,0.3,0.1,0.5,0.1c0,0,0.1,0,0.1,0l0.1,0.1c0,0,0,0,0,0c0,0,0,0,0,0L294,364.3z"/>
	<path class="st52" d="M294.7,367.3c-0.6,1.2-1.8,1.8-2.7,1.3l0,0c-0.1,0-0.2-0.1-0.3-0.2c-0.2-0.2-0.4-0.4-0.5-0.7
		c-0.2-0.6-0.2-1.3,0.1-2c0.5-1,1.4-1.5,2.2-1.5c0.2,0,0.3,0.1,0.5,0.1c0,0,0.1,0,0.1,0l0.1,0.1c0,0,0,0,0,0
		C295,365,295.2,366.2,294.7,367.3z"/>
	<path class="st53" d="M276.1,348.2c-0.1,3.1-4.5,5.4-9.8,5.3c-5.3-0.2-9.6-2.8-9.5-5.8c0.1-3.1,4.5-5.4,9.8-5.3
		C272,342.6,276.2,345.2,276.1,348.2z"/>
	<path class="st53" d="M271.9,343.5c-9.6,0.2-12.4,4.9-13.2,7.6c-1.2-1-1.9-2.2-1.9-3.4c0.1-3.1,4.5-5.4,9.8-5.3
		C268.6,342.5,270.4,342.9,271.9,343.5z"/>
	<path class="st54" d="M275.6,348.2c-0.1,2.9-4.2,5.1-9.3,5c-5-0.1-9.1-2.6-9-5.5c0-0.1,0-0.2,0-0.3c0.3,2.7,4.2,5,9,5.1
		c4.9,0.1,9-1.9,9.3-4.7C275.6,348,275.6,348.1,275.6,348.2z"/>
</g>
<g>
	<g>
		<g>
			<path class="st55" d="M275.7,91.5v27.1c0,0.7-0.4,1.4-1,1.8c0,0-0.1,0-0.1,0.1l-8.9,5.5l-18.3,11.3c-0.3,0.2-0.7,0.2-1,0
				l-3.6-2.2c-0.3-0.2-0.5-0.5-0.5-0.9v-26.2c0-1,0.5-2,1.4-2.5l26.9-16.6c0.4-0.2,0.8-0.2,1.1,0l3.4,2.1c0,0,0.1,0,0.1,0.1
				C275.6,91.1,275.7,91.3,275.7,91.5z"/>
			<path class="st7" d="M275.7,91.5v27.1c0,0.7-0.4,1.4-1,1.8c0,0-0.1,0-0.1,0.1l-8.9,5.5l-18.3,11.3c-0.3,0.2-0.7,0.2-1,0
				c-0.2-0.1-0.4-0.4-0.4-0.7v-26.4c0-1,0.5-1.8,1.3-2.4l27.2-16.8c0.2-0.1,0.4-0.1,0.6-0.1c0,0,0.1,0,0.1,0.1
				C275.6,91.1,275.7,91.3,275.7,91.5z"/>
		</g>
		<path class="st9" d="M262.2,108.4l1.8,2.7c0.1,0.2,0.3,0.2,0.5,0.2l3.9-1.5c0.4-0.1,0.7,0.3,0.5,0.6l-3.1,4.7
			c-0.1,0.1-0.1,0.2-0.1,0.3l0.8,4.3c0,0.3-0.1,0.5-0.4,0.5l-4.2,0c-0.1,0-0.2,0-0.3,0.1l-3.8,4.1c-0.3,0.3-0.8,0.1-0.7-0.3l0.7-4.3
			c0-0.2-0.1-0.4-0.2-0.4l-3-1.3c-0.3-0.1-0.3-0.5-0.1-0.7l4.7-3.2c0.1,0,0.1-0.1,0.2-0.2l2.1-5.4
			C261.6,108.2,262,108.1,262.2,108.4z"/>
	</g>
	<g>
		<g>
			<path class="st56" d="M149.9,201.5v18.3c0,0.5-0.2,1-0.6,1.2c0,0,0,0-0.1,0l-6,3.7l-12.3,7.6c-0.2,0.1-0.5,0.1-0.6,0l-2.4-1.5
				c-0.2-0.1-0.3-0.4-0.3-0.6v-17.7c0-0.7,0.4-1.3,0.9-1.7l18.1-11.2c0.2-0.1,0.5-0.1,0.8,0l2.3,1.4c0,0,0.1,0,0.1,0
				C149.8,201.2,149.9,201.3,149.9,201.5z"/>
			<path class="st57" d="M149.9,201.5v18.3c0,0.5-0.2,1-0.6,1.2c0,0,0,0-0.1,0l-6,3.7l-12.3,7.6c-0.2,0.1-0.5,0.1-0.6,0
				c-0.2-0.1-0.3-0.3-0.3-0.5V214c0-0.6,0.3-1.2,0.9-1.6l18.4-11.3c0.1-0.1,0.3-0.1,0.4,0c0,0,0.1,0,0.1,0
				C149.8,201.2,149.9,201.3,149.9,201.5z"/>
		</g>
		<g>
			
				<ellipse transform="matrix(0.5968 -0.8024 0.8024 0.5968 -114.7304 198.468)" class="st9" cx="140.1" cy="213.4" rx="3.5" ry="1.9"/>
			<path class="st9" d="M146,219l-11.9,7.1c0-3.3,2.7-7.5,5.9-9.5c1.6-1,3.1-1.2,4.2-0.8C145.4,216.3,146,217.4,146,219z"/>
		</g>
	</g>
	<g>
		<g>
			<g>
				<path class="st58" d="M149.9,262.8v18.3c0,0.5-0.2,1-0.6,1.2c0,0,0,0-0.1,0l-6,3.7l-12.3,7.6c-0.2,0.1-0.5,0.1-0.6,0l-2.4-1.5
					c-0.2-0.1-0.3-0.4-0.3-0.6v-17.7c0-0.7,0.4-1.3,0.9-1.7l18.1-11.2c0.2-0.1,0.5-0.1,0.8,0l2.3,1.4c0,0,0.1,0,0.1,0
					C149.8,262.5,149.9,262.7,149.9,262.8z"/>
				<path class="st59" d="M149.9,262.8v18.3c0,0.5-0.2,1-0.6,1.2c0,0,0,0-0.1,0l-6,3.7l-12.3,7.6c-0.2,0.1-0.5,0.1-0.6,0
					c-0.2-0.1-0.3-0.3-0.3-0.5v-17.8c0-0.6,0.3-1.2,0.9-1.6l18.4-11.3c0.1-0.1,0.3-0.1,0.4,0c0,0,0.1,0,0.1,0
					C149.8,262.5,149.9,262.7,149.9,262.8z"/>
				<path class="st60" d="M124.8,254.4v18.3c0,0.5-0.2,1-0.6,1.2c0,0,0,0-0.1,0l-6,3.7l-12.3,7.6c-0.2,0.1-0.5,0.1-0.6,0
					c-0.2-0.1-0.3-0.3-0.3-0.5v-17.8c0-0.6,0.3-1.2,0.9-1.6l18.4-11.3c0.1-0.1,0.3-0.1,0.4,0c0,0,0.1,0,0.1,0
					C124.7,254.1,124.8,254.2,124.8,254.4z"/>
			</g>
		</g>
		<g>
			<polygon class="st9" points="146.3,270.1 146.3,271.4 140.4,278.4 134.5,278.8 134.5,277.5 			"/>
			<polygon class="st9" points="140.4,279.1 146.3,272.1 146.3,278.6 134.5,286 134.5,279.5 			"/>
		</g>
	</g>
	<g>
		<g>
			<g>
				<g>
					<path class="st61" d="M114.1,114.1v18.3c0,0.5-0.2,1-0.6,1.2c0,0,0,0-0.1,0l-6,3.7l-12.3,7.6c-0.2,0.1-0.5,0.1-0.6,0l-2.4-1.5
						c-0.2-0.1-0.3-0.4-0.3-0.6v-17.7c0-0.7,0.4-1.3,0.9-1.7l18.1-11.2c0.2-0.1,0.5-0.1,0.8,0l2.3,1.4c0,0,0.1,0,0.1,0
						C114,113.8,114.1,113.9,114.1,114.1z"/>
					<path class="st62" d="M114.1,114.1v18.3c0,0.5-0.2,1-0.6,1.2c0,0,0,0-0.1,0l-6,3.7l-12.3,7.6c-0.2,0.1-0.5,0.1-0.6,0
						c-0.2-0.1-0.3-0.3-0.3-0.5v-17.8c0-0.6,0.3-1.2,0.9-1.6l18.4-11.3c0.1-0.1,0.3-0.1,0.4,0c0,0,0.1,0,0.1,0
						C114,113.8,114.1,113.9,114.1,114.1z"/>
					<path class="st63" d="M130.6,83.8v12.8c0,0.3-0.2,0.7-0.5,0.9c0,0,0,0,0,0l-4.2,2.6l-8.6,5.3c-0.2,0.1-0.3,0.1-0.5,0
						c-0.1-0.1-0.2-0.2-0.2-0.3V92.6c0-0.5,0.2-0.9,0.6-1.1l12.8-7.9c0.1-0.1,0.2-0.1,0.3,0c0,0,0,0,0.1,0
						C130.6,83.6,130.6,83.7,130.6,83.8z"/>
					<path class="st63" d="M221.1,28.1v12.8c0,0.3-0.2,0.7-0.5,0.9c0,0,0,0,0,0l-4.2,2.6l-8.6,5.3c-0.2,0.1-0.3,0.1-0.5,0
						c-0.1-0.1-0.2-0.2-0.2-0.3V36.9c0-0.5,0.2-0.9,0.6-1.1l12.8-7.9c0.1-0.1,0.2-0.1,0.3,0c0,0,0,0,0.1,0
						C221,27.9,221.1,28,221.1,28.1z"/>
					<path class="st64" d="M247.6,3.9V23c0,0.5-0.2,1-0.7,1.3c0,0,0,0-0.1,0l-6.3,3.9l-12.9,8c-0.2,0.1-0.5,0.1-0.7,0
						c-0.2-0.1-0.3-0.3-0.3-0.5V17c0-0.7,0.4-1.3,0.9-1.7l19.2-11.8c0.1-0.1,0.3-0.1,0.4,0c0,0,0.1,0,0.1,0
						C247.5,3.6,247.6,3.7,247.6,3.9z"/>
					<path class="st64" d="M115.3,273.5v19.1c0,0.5-0.2,1-0.7,1.3c0,0,0,0-0.1,0l-6.3,3.9l-12.9,8c-0.2,0.1-0.5,0.1-0.7,0
						c-0.2-0.1-0.3-0.3-0.3-0.5v-18.6c0-0.7,0.4-1.3,0.9-1.7l19.2-11.8c0.1-0.1,0.3-0.1,0.4,0c0,0,0.1,0,0.1,0
						C115.2,273.1,115.3,273.3,115.3,273.5z"/>
				</g>
			</g>
		</g>
		<g>
			<path class="st9" d="M103.5,137.1l-5.3-2.1c-0.5-0.2-0.5-1,0-1.8c0.5-0.8,1.3-1.3,1.8-1.1l3,1.2l6-13.2c0.4-0.8,1.2-1.5,1.8-1.5
				c0.6,0,0.8,0.7,0.4,1.5L103.5,137.1z"/>
		</g>
	</g>
	<g>
		<path class="st65" d="M366.3,131.2v18.3c0,0.5-0.2,1-0.6,1.2c0,0,0,0-0.1,0l-6,3.7l-12.3,7.6c-0.2,0.1-0.5,0.1-0.6,0l-2.4-1.5
			c-0.2-0.1-0.3-0.4-0.3-0.6v-17.7c0-0.7,0.4-1.3,0.9-1.7l18.1-11.2c0.2-0.1,0.5-0.1,0.8,0l2.3,1.4c0,0,0.1,0,0.1,0
			C366.2,130.9,366.3,131,366.3,131.2z"/>
		<path class="st66" d="M366.3,131.2v18.3c0,0.5-0.2,1-0.6,1.2c0,0,0,0-0.1,0l-6,3.7l-12.3,7.6c-0.2,0.1-0.5,0.1-0.6,0
			c-0.2-0.1-0.3-0.3-0.3-0.5v-17.8c0-0.6,0.3-1.2,0.9-1.6l18.4-11.3c0.1-0.1,0.3-0.1,0.4,0c0,0,0.1,0,0.1,0
			C366.2,130.9,366.3,131,366.3,131.2z"/>
		<path class="st53" d="M387,135.5v21.8c0,0.6-0.3,1.1-0.8,1.5c0,0,0,0-0.1,0l-7.1,4.4l-14.7,9.1c-0.3,0.2-0.6,0.1-0.8,0
			c-0.2-0.1-0.3-0.3-0.3-0.6v-21.2c0-0.8,0.4-1.5,1.1-1.9l21.9-13.5c0.2-0.1,0.3-0.1,0.5,0c0,0,0.1,0,0.1,0.1
			C386.9,135.2,387,135.3,387,135.5z"/>
		<path class="st53" d="M268.3,8.6v21.8c0,0.6-0.3,1.1-0.8,1.5c0,0,0,0-0.1,0l-7.1,4.4l-14.7,9.1c-0.3,0.2-0.6,0.1-0.8,0
			c-0.2-0.1-0.3-0.3-0.3-0.6V23.5c0-0.8,0.4-1.5,1.1-1.9l21.9-13.5c0.2-0.1,0.3-0.1,0.5,0c0,0,0.1,0,0.1,0.1
			C268.2,8.2,268.3,8.4,268.3,8.6z"/>
		<path class="st53" d="M256.4,174.1v21.8c0,0.6-0.3,1.1-0.8,1.5c0,0,0,0-0.1,0l-7.1,4.4l-14.7,9.1c-0.3,0.2-0.6,0.1-0.8,0
			c-0.2-0.1-0.3-0.3-0.3-0.6V189c0-0.8,0.4-1.5,1.1-1.9l21.9-13.5c0.2-0.1,0.3-0.1,0.5,0c0,0,0.1,0,0.1,0.1
			C256.3,173.7,256.4,173.9,256.4,174.1z"/>
		<path class="st9" d="M353.5,150c0,1-0.7,1.7-1.5,1.7c-0.8,0-1.5-0.8-1.5-1.7c0-1,0.7-1.7,1.5-1.7C352.9,148.3,353.5,149,353.5,150
			z"/>
		<path class="st9" d="M358.4,147c0,1-0.7,1.7-1.5,1.7c-0.8,0-1.5-0.8-1.5-1.7s0.7-1.7,1.5-1.7C357.7,145.3,358.4,146,358.4,147z"/>
		<path class="st9" d="M363.2,144c0,1-0.7,1.7-1.5,1.7s-1.5-0.8-1.5-1.7c0-1,0.7-1.7,1.5-1.7S363.2,143,363.2,144z"/>
	</g>
</g>
<g>
	<g>
		<ellipse class="st13" cx="259.7" cy="307.6" rx="8.7" ry="4.4"/>
		<path class="st67" d="M251,300.3v4.4c0,2.4,3.9,4.4,8.7,4.4c4.8,0,8.7-2,8.7-4.4v-4.4H251z"/>
		<ellipse class="st7" cx="259.7" cy="300.3" rx="8.7" ry="4.4"/>
		<path class="st9" d="M263.5,300.3c0,1.1-1.7,2-3.9,2c-2.2,0-3.9-0.9-3.9-2c0-1.1,1.7-2,3.9-2C261.8,298.4,263.5,299.2,263.5,300.3
			z"/>
	</g>
	<g>
		<ellipse class="st13" cx="242.3" cy="318" rx="8.7" ry="4.4"/>
		<path class="st68" d="M233.7,310.8v4.4c0,2.4,3.9,4.4,8.7,4.4c4.8,0,8.7-2,8.7-4.4v-4.4H233.7z"/>
		<ellipse class="st8" cx="242.3" cy="310.8" rx="8.7" ry="4.4"/>
		<polygon class="st9" points="240.8,307.3 247.5,311.5 238.1,312.7 		"/>
	</g>
	<g>
		<path class="st13" d="M285.6,297.2c0,2.4-3.9,4.4-8.7,4.4c-4.8,0-8.7-2-8.7-4.4c0-2.4,3.9-4.4,8.7-4.4
			C281.8,292.8,285.6,294.8,285.6,297.2z"/>
		<path class="st65" d="M268.3,289.9v4.4c0,2.4,3.9,4.4,8.7,4.4c4.8,0,8.7-2,8.7-4.4v-4.4H268.3z"/>
		<path class="st66" d="M285.6,289.9c0,2.4-3.9,4.4-8.7,4.4c-4.8,0-8.7-2-8.7-4.4c0-2.4,3.9-4.4,8.7-4.4
			C281.8,285.5,285.6,287.5,285.6,289.9z"/>
		<polygon class="st9" points="271.6,288.7 278.4,292.8 281,287.4 		"/>
	</g>
</g>
</svg>
