<?xml version="1.0" encoding="utf-8"?>
<!-- Generator: Adobe Illustrator 22.0.1, SVG Export Plug-In . SVG Version: 6.00 Build 0)  -->
<svg class="main-nav-logo__icon-svg" version="1.1" id="Capa_1" xmlns="http://www.w3.org/2000/svg" xmlns:xlink="http://www.w3.org/1999/xlink" x="0px" y="0px"
	 viewBox="0 0 46.7 46.7" style="enable-background:new 0 0 46.7 46.7;" xml:space="preserve">
<g>
	<g>
		<path d="M33.8,36.2h-5.3v-11H18.2v11h-5.3V10.5h5.3v10.4h10.4V10.5h5.3L33.8,36.2L33.8,36.2z"/>
	</g>
</g>
<g>
	<path d="M23.4,1.7C35.3,1.7,45,11.4,45,23.4S35.3,45,23.4,45S1.7,35.3,1.7,23.4S11.4,1.7,23.4,1.7 M23.4,0C10.5,0,0,10.5,0,23.4
		s10.5,23.4,23.4,23.4s23.4-10.5,23.4-23.4S36.2,0,23.4,0L23.4,0z"/>
</g>
</svg>
