<?xml version="1.0" encoding="utf-8"?>
<!-- Generator: Adobe Illustrator 22.0.1, SVG Export Plug-In . SVG Version: 6.00 Build 0)  -->
<svg version="1.1" id="Capa_1" xmlns="http://www.w3.org/2000/svg" xmlns:xlink="http://www.w3.org/1999/xlink" x="0px" y="0px"
	 viewBox="0 0 150 150" style="enable-background:new 0 0 150 150;" xml:space="preserve">
<style type="text/css">
	.st0{fill:#CFB400;}
	.st1{fill:#003062;}
</style>
<g>
	<path class="st0" d="M75,123c0,0,3,3.7,4.4,5.5c1.8,2.4,4.8,2.2,7.1-0.5c14.7-17.5,35.1-36.1,52.1-49.3c2.6-2,2.6-5,0-7.1
		c-17-13.3-37.3-31.9-52.1-49.4c-2.3-2.7-5.3-2.9-7.1-0.5C78,23.4,76.5,25.2,75,27c-1.6-1.9-3-3.7-4.4-5.5c-1.8-2.4-4.8-2.2-7.1,0.5
		C48.8,39.6,28.5,58.2,11.5,71.5c-2.6,2-2.6,5,0,7.1c17,13.3,37.3,31.8,52.1,49.3c2.3,2.7,5.3,2.9,7.1,0.5
		C72,126.7,73.4,124.8,75,123z"/>
	<path class="st1" d="M138.5,71.6c-17-13.3-37.3-31.9-52.1-49.4c-2.3-2.7-5.3-2.9-7.1-0.5c-1.4,1.8-2.9,3.6-4.4,5.5
		c-5.8,7-12.7,14.4-19.9,21.7c-2.6,2.6-5.3,5.2-7.9,7.7c-2.6,2.5-2,4.4,1.5,4.2c2.1-0.1,4.1-0.2,6.2-0.2c3.6-0.2,7.3-0.2,10.9-0.2
		c2.1,0,4.3-0.1,6.4-0.1s4.2,0,6.2,0c0.5,0,0.9,0,1.4,0c2,0,3.6-1.7,3.6-3.7c0-1.4-0.1-2.9-0.2-4.4c-0.1-2.4-0.2-4.9-0.2-7.3
		c-0.1-1.7-0.2-3.4-0.2-5c-0.1-2,0.7-2.6,1.9-1.8c0.2,0.2,0.5,0.4,0.8,0.7c6.3,6.8,13.2,13.8,20.1,20.4c4.3,4.1,8.7,8,12.9,11.8
		c0.2,0.2,0.4,0.4,0.5,0.6c0.3,0.3,0.6,0.6,1,0.8c1.7,1.5,1.7,4,0,5.5c-11.1,9.9-23.3,21.4-33.9,32.8c-0.2,0.2-0.3,0.4-0.5,0.5
		c-0.3,0.3-0.6,0.5-0.8,0.8c-0.6,0.4-1.1,0.4-1.4,0.1c-0.3-0.3-0.5-1-0.5-2c0.1-1.6,0.2-3.1,0.2-4.7c0.1-2.7,0.2-5.4,0.3-8.1
		c0-1.2,0.1-2.3,0.1-3.5c0.1-2-1.6-3.7-3.6-3.7c-0.5,0-0.9,0-1.4,0c-2.1,0-4.1,0-6.2,0c-2,0-4.1,0-6.1-0.1
		c-3.7-0.1-7.4-0.2-11.1-0.3c-0.4,0-0.7,0-1.1,0c-1.6-0.1-3.2-0.2-4.8-0.2c-3.5-0.2-4.1,1.7-1.5,4.2c0.9,0.9,1.9,1.8,2.8,2.7
		c9,8.8,17.6,17.9,24.7,26.4c1.6,1.9,3,3.7,4.4,5.5c1.8,2.4,4.8,2.2,7.1-0.5c14.7-17.5,35.1-36.1,52.1-49.3
		C141.1,76.6,141.1,73.6,138.5,71.6z"/>
</g>
</svg>
