<?xml version="1.0" encoding="utf-8"?>
<!-- Generator: Adobe Illustrator 22.0.1, SVG Export Plug-In . SVG Version: 6.00 Build 0)  -->
<svg version="1.1" id="Capa_1" xmlns="http://www.w3.org/2000/svg" xmlns:xlink="http://www.w3.org/1999/xlink" x="0px" y="0px"
	 viewBox="0 0 500 500" style="enable-background:new 0 0 500 500;" xml:space="preserve">
<style type="text/css">
	.st0{fill:#F7931E;}
	.st1{fill:none;stroke:#F15A24;stroke-width:3;stroke-miterlimit:10;}
</style>
  <defs>
    <filter id="f1" x="0" y="0">
      <feGaussianBlur in="SourceGraphic" stdDeviation="3" />
    </filter>
  </defs>
<g>
	<path class="st0" d="M99.5,247.6L92.1,270h-9.5l24.2-71.2h11.1l24.3,71.2h-9.8l-7.6-22.4H99.5z M122.9,240.4l-7-20.5
		c-1.6-4.6-2.6-8.9-3.7-13H112c-1.1,4.2-2.2,8.6-3.6,12.9l-7,20.6H122.9z" filter="url(#f1)"/>
</g>
<g>
	<path class="st0" d="M303.5,255.1l-17.8,53.8h-22.8L321,137.8h26.7L406,308.9h-23.6l-18.3-53.8H303.5z M359.5,237.9l-16.8-49.2
		c-3.8-11.2-6.3-21.3-8.9-31.2h-0.5c-2.5,10.2-5.3,20.6-8.6,31L308,237.9H359.5z"/>
</g>
<line class="st1" x1="197" y1="102" x2="196.5" y2="349.5"/>
</svg>
