<?xml version="1.0" standalone="no"?>
<!DOCTYPE svg PUBLIC "-//W3C//DTD SVG 20010904//EN"
 "http://www.w3.org/TR/2001/REC-SVG-20010904/DTD/svg10.dtd">
<svg version="1.0" xmlns="http://www.w3.org/2000/svg"
 width="700.000000pt" height="700.000000pt" viewBox="0 0 700.000000 700.000000"
 preserveAspectRatio="xMidYMid meet">
<metadata>
Created by potrace 1.11, written by Peter Selinger 2001-2013
</metadata>
<g transform="translate(0.000000,700.000000) scale(0.100000,-0.100000)"
fill="#000000" stroke="none">
<path d="M3240 6944 c-1009 -90 -1893 -572 -2490 -1359 -366 -482 -589 -1028
-677 -1655 -25 -178 -25 -682 0 -860 64 -452 199 -867 404 -1236 492 -886
1344 -1514 2323 -1714 275 -56 368 -64 700 -64 332 0 425 8 700 64 979 200
1831 828 2323 1714 205 369 340 784 404 1236 25 178 25 682 0 860 -88 627
-311 1174 -677 1655 -560 739 -1379 1213 -2315 1341 -115 15 -585 28 -695 18z
m605 -254 c500 -58 953 -217 1369 -479 702 -442 1216 -1160 1406 -1965 63
-269 84 -451 84 -746 0 -295 -21 -477 -84 -746 -276 -1167 -1207 -2098 -2374
-2374 -269 -63 -451 -84 -746 -84 -295 0 -477 21 -746 84 -1167 276 -2098
1207 -2374 2374 -63 269 -84 451 -84 746 0 370 45 657 155 996 388 1196 1473
2073 2715 2194 60 5 127 12 149 14 68 7 435 -3 530 -14z"/>
<path d="M1810 3505 l0 -2075 425 0 425 0 0 890 0 890 833 -2 832 -3 3 -888 2
-887 423 2 422 3 0 2070 0 2070 -422 3 -423 2 0 -840 0 -840 -835 0 -835 0 0
840 0 840 -425 0 -425 0 0 -2075z"/>
</g>
</svg>
